<?xml version="1.0" encoding="UTF-8"?>
<svg version="1.1" xmlns="http://www.w3.org/2000/svg" width="1200" height="630">
<path d="M0 0 C396 0 792 0 1200 0 C1200 207.9 1200 415.8 1200 630 C804 630 408 630 0 630 C0 422.1 0 214.2 0 0 Z " fill="#FEFEFE" transform="translate(0,0)"/>
<path d="M0 0 C6.6 0 13.2 0 20 0 C20 29.7 20 59.4 20 90 C36.83 90 53.66 90 71 90 C71.495 96.435 71.495 96.435 72 103 C72.27038086 101.93305908 72.54076172 100.86611816 72.81933594 99.7668457 C79.56373493 73.17693181 86.50248852 46.6440971 93.61889648 20.15136719 C95.41930452 13.43603934 97.20860337 6.71773736 99 0 C111.21 0 123.42 0 136 0 C137.36125 5.4759375 137.36125 5.4759375 138.75 11.0625 C140.77143316 19.16564473 142.83244537 27.25316527 145.0078125 35.31640625 C146.16787457 39.62325087 147.30411398 43.93607396 148.4375 48.25 C148.75279663 49.44834473 148.75279663 49.44834473 149.07446289 50.67089844 C150.13775921 54.71328917 151.19803629 58.7564443 152.25390625 62.80078125 C154.32344555 70.71606032 156.42896014 78.61877662 158.625 86.5 C158.83278076 87.24588379 159.04056152 87.99176758 159.25463867 88.76025391 C160.15775902 91.99670684 161.06556451 95.2316961 161.98046875 98.46484375 C162.39232422 99.93630859 162.39232422 99.93630859 162.8125 101.4375 C163.04582031 102.26121094 163.27914062 103.08492188 163.51953125 103.93359375 C164 106 164 106 164 109 C157.07 109 150.14 109 143 109 C141.9951712 105.56384438 140.99595257 102.12622812 140 98.6875 C139.71382812 97.71103516 139.42765625 96.73457031 139.1328125 95.72851562 C138.86210938 94.79072266 138.59140625 93.85292969 138.3125 92.88671875 C137.93544922 91.59060669 137.93544922 91.59060669 137.55078125 90.26831055 C137 88 137 88 137 85 C124.13 85.33 111.26 85.66 98 86 C96.39680367 92.82040469 96.39680367 92.82040469 94.79907227 99.64208984 C94.59854248 100.48980957 94.3980127 101.3375293 94.19140625 102.2109375 C93.98717041 103.08024902 93.78293457 103.94956055 93.57250977 104.84521484 C93 107 93 107 92 109 C61.64 109 31.28 109 0 109 C0 73.03 0 37.06 0 0 Z " fill="#030303" transform="translate(700,262)"/>
<path d="M0 0 C8.848125 -0.061875 17.69625 -0.12375 26.8125 -0.1875 C29.58374268 -0.21481201 32.35498535 -0.24212402 35.21020508 -0.27026367 C37.43830939 -0.27903605 39.66641855 -0.2866782 41.89453125 -0.29296875 C43.02580444 -0.30831665 44.15707764 -0.32366455 45.32263184 -0.33947754 C55.82463485 -0.34289134 64.8862621 1.13249005 73.0546875 8.02734375 C79.43849165 14.50088009 81.20403639 20.74286729 81.3125 29.6875 C81.35600586 30.85442383 81.35600586 30.85442383 81.40039062 32.04492188 C81.47544832 38.96755123 79.64238981 44.08880662 74.96484375 49.2421875 C74.29582031 49.78101563 73.62679687 50.31984375 72.9375 50.875 C71.93009766 51.70644531 71.93009766 51.70644531 70.90234375 52.5546875 C69.31197388 53.76297672 67.66186069 54.89209287 66 56 C65.67 56.99 65.34 57.98 65 59 C66.03125 59.020625 67.0625 59.04125 68.125 59.0625 C72.64368019 60.15572908 73.9298185 61.36447906 76.76055908 64.86404419 C78.99968154 68.7227732 78.73877424 72.51529626 78.5859375 76.87109375 C78.57744781 77.793423 78.56895813 78.71575226 78.56021118 79.66603088 C78.52681679 82.59107876 78.45156624 85.51329581 78.375 88.4375 C78.34488224 90.42899644 78.31750961 92.42053641 78.29296875 94.41210938 C78.23218684 99.27668804 78.11476583 104.1352039 78 109 C71.4 109 64.8 109 58 109 C57.97421875 106.44765625 57.9484375 103.8953125 57.921875 101.265625 C57.88344696 98.78992752 57.83828939 96.31443779 57.79248047 93.83886719 C57.76427933 92.12021831 57.74306046 90.40143995 57.72900391 88.68261719 C57.70756167 86.20961253 57.66090844 83.73816325 57.609375 81.265625 C57.60814636 80.49881409 57.60691772 79.73200317 57.60565186 78.94195557 C57.51458474 75.61470369 57.22722865 73.36044145 55.4375 70.52148438 C52.13619059 68.46081127 49.17139001 68.3967869 45.390625 68.390625 C44.74593262 68.37499512 44.10124023 68.35936523 43.43701172 68.34326172 C41.04171206 68.2908839 38.64576724 68.27243313 36.25 68.25 C28.20625 68.12625 28.20625 68.12625 20 68 C20 81.53 20 95.06 20 109 C13.4 109 6.8 109 0 109 C0 73.03 0 37.06 0 0 Z " fill="#010101" transform="translate(871,262)"/>
<path d="M0 0 C61.88938053 0 61.88938053 0 72 10 C79.77116837 19.48463311 80.83404912 29.16660548 80.19970703 41.00146484 C79.75395444 45.4622603 78.20935146 49.14817015 76 53 C75.649375 53.64195312 75.29875 54.28390625 74.9375 54.9453125 C70.21061939 62.52801682 62.67403167 66.23396688 54.26367188 68.41552734 C47.9800433 69.54082707 41.67326524 69.30599752 35.3125 69.1875 C28.2278125 69.0946875 28.2278125 69.0946875 21 69 C21 82.2 21 95.4 21 109 C14.07 109 7.14 109 0 109 C0 73.03 0 37.06 0 0 Z " fill="#7520FF" transform="translate(963,262)"/>
<path d="M0 0 C2 0 2 0 3.234375 1.22265625 C3.73453125 1.82980469 4.2346875 2.43695313 4.75 3.0625 C8.29998009 7.2411224 11.9984867 11.25347135 15.75 15.25 C20.96595151 20.81666741 26.14533761 26.41298272 31.29296875 32.04296875 C34.16490669 35.1833317 37.05008448 38.31137033 39.9375 41.4375 C40.43580322 41.97705322 40.93410645 42.51660645 41.44750977 43.07250977 C42.96483906 44.71516131 44.48237982 46.35761721 46 48 C47.01304751 49.09632952 48.02606838 50.19268365 49.0390625 51.2890625 C49.78990112 52.10141357 49.78990112 52.10141357 50.5559082 52.93017578 C51.55316541 54.01065896 52.54911705 55.09234872 53.54370117 56.17529297 C56.06970318 58.92401773 58.61470548 61.64987681 61.19921875 64.34375 C61.96770142 65.15477173 61.96770142 65.15477173 62.75170898 65.98217773 C64.16668007 67.47461832 65.59087517 68.95829802 67.015625 70.44140625 C69 73 69 73 69 77 C67.70581055 78.82421875 67.70581055 78.82421875 65.88671875 80.6875 C65.22124023 81.38004883 64.55576172 82.07259766 63.87011719 82.78613281 C63.14985352 83.51670898 62.42958984 84.24728516 61.6875 85 C60.20641662 86.53586586 58.72594976 88.07232649 57.24609375 89.609375 C56.5176123 90.36025391 55.78913086 91.11113281 55.03857422 91.88476562 C52.39250438 94.63034037 49.81706492 97.4303751 47.25 100.25 C43.51273347 104.34532799 39.76343796 108.4287537 36 112.5 C31.25308546 117.63715542 26.52313466 122.78948384 21.80078125 127.94921875 C19.82582751 130.10403309 17.84297258 132.25128791 15.85546875 134.39453125 C14.79941766 135.53379716 13.74342741 136.67311947 12.6875 137.8125 C12.18114014 138.35865967 11.67478027 138.90481934 11.15307617 139.4675293 C8.47604515 142.36546528 5.85481726 145.29577904 3.3125 148.3125 C2.549375 149.199375 1.78625 150.08625 1 151 C0.67 151 0.34 151 0 151 C0 101.17 0 51.34 0 0 Z " fill="#020202" transform="translate(252,240)"/>
<path d="M0 0 C6.93 0 13.86 0 21 0 C21 14.85 21 29.7 21 45 C34.2 45 47.4 45 61 45 C61 30.15 61 15.3 61 0 C67.93 0 74.86 0 82 0 C82 35.97 82 71.94 82 109 C75.07 109 68.14 109 61 109 C61 94.15 61 79.3 61 64 C47.8 64 34.6 64 21 64 C21 78.85 21 93.7 21 109 C14.07 109 7.14 109 0 109 C0 73.03 0 37.06 0 0 Z " fill="#7520FF" transform="translate(1051,262)"/>
<path d="M0 0 C7.87717481 6.75186413 7.87717481 6.75186413 10.4296875 9.515625 C10.99236328 10.12148437 11.55503906 10.72734375 12.13476562 11.3515625 C12.70904297 11.97804687 13.28332031 12.60453125 13.875 13.25 C14.48794922 13.91257813 15.10089844 14.57515625 15.73242188 15.2578125 C19.72874958 19.58681659 23.67565542 23.95863301 27.6015625 28.3515625 C31.25579086 32.38668763 34.98264424 36.35321782 38.70263672 40.32763672 C42.36406535 44.24150966 46.00821138 48.16984101 49.625 52.125 C53.57550594 56.44476689 57.53243275 60.75839267 61.5 65.0625 C62.0048291 65.61115723 62.5096582 66.15981445 63.02978516 66.72509766 C65.30930331 69.19644496 67.59398914 71.65088805 70 74 C68.58261511 77.25207092 66.87473588 79.31361067 64.3125 81.75 C60.947917 84.95950202 57.91030905 88.36810275 54.86694336 91.87695312 C51.86829799 95.28694661 48.74539065 98.57674022 45.625 101.875 C40.80607718 106.99043571 36.04287635 112.14310466 31.36328125 117.38671875 C27.72917331 121.40526125 24.02033955 125.35338969 20.31469727 129.3059082 C17.45420408 132.35971468 14.6056219 135.42189364 11.796875 138.5234375 C11.0541333 139.34255615 11.0541333 139.34255615 10.29638672 140.17822266 C8.96298068 141.65271047 7.63368667 143.13091392 6.3046875 144.609375 C4 147 4 147 0 150 C0 100.5 0 51 0 0 Z " fill="#000000" transform="translate(67,240)"/>
<path d="M0 0 C2.04203421 1.42904082 3.8323055 2.93597974 5.64453125 4.64453125 C6.47404297 5.37929688 6.47404297 5.37929688 7.3203125 6.12890625 C15.06894451 13.89676564 15.64453125 24.22850535 15.64453125 34.64453125 C8.71453125 34.64453125 1.78453125 34.64453125 -5.35546875 34.64453125 C-5.43796875 32.97390625 -5.52046875 31.30328125 -5.60546875 29.58203125 C-6.1310207 24.13731302 -6.88587843 20.91479626 -10.35546875 16.64453125 C-17.54940491 12.51467901 -26.69209737 12.34628332 -34.70703125 14.18359375 C-38.25569054 15.55775543 -40.79749259 17.16199631 -42.35546875 20.64453125 C-43.16695583 25.42227541 -42.88644339 28.67412933 -40.54296875 32.95703125 C-35.29170164 38.28184552 -27.06909689 39.53782726 -20.04296875 41.08203125 C-6.46212777 44.08564174 7.61958996 48.46240726 15.64453125 60.64453125 C19.18435385 67.60253306 18.66325035 77.16448246 16.95703125 84.66796875 C13.7069231 93.470345 8.01069661 99.49954586 -0.35546875 103.64453125 C-13.67556221 109.07207358 -29.86758963 109.85131946 -43.453125 104.96875 C-52.90808189 100.65484638 -59.83963087 94.45876344 -64.16796875 84.95703125 C-66.51960275 78.39721008 -66.43886415 72.56634983 -66.35546875 65.64453125 C-59.75546875 65.64453125 -53.15546875 65.64453125 -46.35546875 65.64453125 C-45.93229167 68.60677083 -45.50911458 71.56901042 -45.0859375 74.53125 C-44.32974314 77.75417461 -43.12444727 79.87717033 -41.35546875 82.64453125 C-41.35546875 83.30453125 -41.35546875 83.96453125 -41.35546875 84.64453125 C-40.63359375 84.93328125 -39.91171875 85.22203125 -39.16796875 85.51953125 C-37.46147629 86.20212823 -35.76737546 86.91870299 -34.1015625 87.6953125 C-26.66111417 90.26718867 -17.39844678 89.43098356 -10.12890625 86.56640625 C-6.36669425 84.61071895 -4.68016511 82.61862032 -3.35546875 78.64453125 C-3.01043918 74.36616462 -2.82021552 71.76601421 -4.66796875 67.89453125 C-11.0763811 62.52934882 -19.85759318 61.22948347 -27.79296875 59.20703125 C-41.12032998 55.79500774 -54.07471651 52.01678419 -61.4453125 39.57421875 C-64.8531557 32.34900613 -64.79338402 21.38384841 -62.484375 13.7734375 C-61.28189255 11.49857726 -60.00199824 9.61953506 -58.35546875 7.64453125 C-57.824375 7.00128906 -57.29328125 6.35804688 -56.74609375 5.6953125 C-43.38293537 -8.92447316 -16.4443298 -9.46298912 0 0 Z " fill="#030303" transform="translate(432.35546875,265.35546875)"/>
<path d="M0 0 C6.67839196 5.56532663 6.67839196 5.56532663 9 8.375 C12.47011023 12.44393456 16.09253035 16.35039822 19.75 20.25 C24.96570178 25.81690431 30.14533414 31.41297892 35.29296875 37.04296875 C38.16490709 40.18333215 41.05016112 43.31129902 43.9375 46.4375 C44.43290283 46.97415283 44.92830566 47.51080566 45.4387207 48.0637207 C48.01618592 50.85503492 50.59632387 53.64383119 53.1796875 56.4296875 C58.53902719 62.2140297 63.86425462 68.01432493 69 74 C67.62853041 77.0185695 66.03751287 79.2998923 63.828125 81.765625 C63.20486328 82.46236328 62.58160156 83.15910156 61.93945312 83.87695312 C58.90650809 87.19700473 55.83926526 90.48235197 52.75 93.75 C46.44291919 100.4495214 40.20187694 107.20304042 34 114 C32.18809794 115.97971933 30.37575555 117.95902167 28.5625 119.9375 C28.11173096 120.42951904 27.66096191 120.92153809 27.1965332 121.4284668 C23.2879031 125.69211173 19.36386222 129.94142971 15.43457031 134.18603516 C12.95809082 136.86469281 10.49438995 139.55339391 8.0546875 142.265625 C7.59199463 142.77923584 7.12930176 143.29284668 6.65258789 143.82202148 C5.38713052 145.22949411 4.12509706 146.640043 2.86328125 148.05078125 C1.94095703 149.01564453 1.94095703 149.01564453 1 150 C0.67 150 0.34 150 0 150 C0 100.5 0 51 0 0 Z " fill="#731DFF" transform="translate(160,240)"/>
<path d="M0 0 C22.77 0 45.54 0 69 0 C69 5.94 69 11.88 69 18 C52.83 18 36.66 18 20 18 C20 26.91 20 35.82 20 45 C34.85 45 49.7 45 65 45 C65 50.94 65 56.88 65 63 C50.15 63 35.3 63 20 63 C20 71.91 20 80.82 20 90 C36.83 90 53.66 90 71 90 C71 96.27 71 102.54 71 109 C47.57 109 24.14 109 0 109 C0 73.03 0 37.06 0 0 Z " fill="#010101" transform="translate(542,262)"/>
<path d="M0 0 C27.72 0 55.44 0 84 0 C84 5.94 84 11.88 84 18 C73.77 18 63.54 18 53 18 C53 48.03 53 78.06 53 109 C46.07 109 39.14 109 32 109 C32 79.3 32 49.6 32 19 C21.44 19 10.88 19 0 19 C0 12.73 0 6.46 0 0 Z " fill="#040404" transform="translate(449,262)"/>
<path d="M0 0 C6.6 0 13.2 0 20 0 C20 29.7 20 59.4 20 90 C36.5 90 53 90 70 90 C70 96.27 70 102.54 70 109 C46.9 109 23.8 109 0 109 C0 73.03 0 37.06 0 0 Z " fill="#010101" transform="translate(622,262)"/>
<path d="M0 0 C6.6 0 13.2 0 20 0 C20.33 29.7 20.66 59.4 21 90 C45.255 90.495 45.255 90.495 70 91 C70 96.94 70 102.88 70 109 C46.9 109 23.8 109 0 109 C0 73.03 0 37.06 0 0 Z " fill="#000000" transform="translate(700,262)"/>
<path d="M0 0 C4.44847842 -0.0921434 8.89361053 -0.17167434 13.34228516 -0.21972656 C14.85346736 -0.23976791 16.36457272 -0.26700905 17.87548828 -0.30175781 C20.05520643 -0.35061109 22.23389431 -0.37304224 24.4140625 -0.390625 C25.7232666 -0.41157227 27.0324707 -0.43251953 28.38134766 -0.45410156 C33.4556093 0.18266316 36.52841092 2.33219904 39.875 6.125 C42.00119203 11.55860186 41.73331165 16.91585109 39.8125 22.375 C37.42182199 25.83736126 34.7594239 28.12028805 31 30 C28.67583704 30.08586809 26.34916693 30.10711043 24.0234375 30.09765625 C23.33819 30.0962413 22.6529425 30.09482635 21.94692993 30.09336853 C19.75624239 30.08776675 17.5656567 30.07521406 15.375 30.0625 C13.89062648 30.05748522 12.40625135 30.05292228 10.921875 30.04882812 C7.2811791 30.03864721 3.64070369 30.01907237 0 30 C0 20.1 0 10.2 0 0 Z " fill="#F9F9F9" transform="translate(891,281)"/>
<path d="M0 0 C6.991875 -0.12375 6.991875 -0.12375 14.125 -0.25 C15.58437988 -0.28641602 17.04375977 -0.32283203 18.54736328 -0.36035156 C19.70993652 -0.3703418 20.87250977 -0.38033203 22.0703125 -0.390625 C23.84559326 -0.4220459 23.84559326 -0.4220459 25.65673828 -0.45410156 C30.50315259 0.20416707 33.61701185 2.42625487 36.8125 6.0625 C39.31895923 10.15198612 39.60619335 14.33314159 39 19 C37.40882687 23.63336425 35.42096368 27.57560056 31 30 C27.64264863 31.11911712 25.11794614 31.11365586 21.58203125 31.09765625 C19.88784058 31.09390991 19.88784058 31.09390991 18.15942383 31.09008789 C16.00769653 31.07643188 16.00769653 31.07643188 13.8125 31.0625 C9.254375 31.041875 4.69625 31.02125 0 31 C0 20.77 0 10.54 0 0 Z " fill="#FDFDFF" transform="translate(984,281)"/>
<path d="M0 0 C0.99 0 1.98 0 3 0 C6.58017344 13.11985056 10.11421133 26.24991101 13.4375 39.4375 C13.82542725 40.96310547 13.82542725 40.96310547 14.22119141 42.51953125 C14.45628418 43.46054687 14.69137695 44.4015625 14.93359375 45.37109375 C15.14040771 46.19536865 15.34722168 47.01964355 15.56030273 47.86889648 C16 50 16 50 16 53 C6.43 53 -3.14 53 -13 53 C-11.71143335 45.91288343 -10.36386628 38.9700204 -8.65234375 31.9921875 C-8.43558487 31.10008575 -8.21882599 30.20798401 -7.99549866 29.28884888 C-7.54245467 27.42818026 -7.08780739 25.56790132 -6.6315918 23.70800781 C-5.93093925 20.84822162 -5.23765749 17.98671303 -4.54492188 15.125 C-4.10199955 13.30978914 -3.65865588 11.49468102 -3.21484375 9.6796875 C-2.90389015 8.3939534 -2.90389015 8.3939534 -2.58665466 7.08224487 C-1.11488429 1.11488429 -1.11488429 1.11488429 0 0 Z " fill="#F8F8F8" transform="translate(816,275)"/>
</svg>
