<?xml version="1.0" encoding="UTF-8"?>
<svg version="1.1" xmlns="http://www.w3.org/2000/svg" width="1600" height="1600">
<path d="M0 0 C528 0 1056 0 1600 0 C1600 528 1600 1056 1600 1600 C1072 1600 544 1600 0 1600 C0 1072 0 544 0 0 Z " fill="#731CFD" transform="translate(0,0)"/>
<path d="M0 0 C0.66 0 1.32 0 2 0 C2.2475 0.78375 2.495 1.5675 2.75 2.375 C4.23638466 5.49640779 5.01793578 5.53158247 8 7 C9.74829102 8.59716797 9.74829102 8.59716797 11.50390625 10.4921875 C12.48278809 11.54067871 12.48278809 11.54067871 13.48144531 12.61035156 C14.51156738 13.73135254 14.51156738 13.73135254 15.5625 14.875 C16.27631836 15.64295898 16.99013672 16.41091797 17.72558594 17.20214844 C19.82335702 19.46237636 21.91303946 21.72979163 24 24 C24.5367334 24.58233398 25.0734668 25.16466797 25.62646484 25.76464844 C27.87701321 28.20723347 30.12054376 30.65604495 32.359375 33.109375 C35.22840335 36.25002734 38.11250558 39.3763399 41 42.5 C44.84246832 46.65835524 48.6766162 50.82409099 52.5 55 C57.81479668 60.8041288 63.15178015 66.5875674 68.49267578 72.36767578 C69.97410134 73.97195361 71.45408992 75.57754366 72.93359375 77.18359375 C78.28952019 82.99579878 83.66480003 88.7890526 89.0625 94.5625 C94.18592692 100.04374913 99.27840082 105.55132815 104.33984375 111.08984375 C106.18285972 113.10606533 108.02861363 115.11939517 109.87890625 117.12890625 C113.86477259 121.46063684 117.84529788 125.78921205 121.6875 130.25 C124.0242665 132.94927204 126.45848313 135.49249961 129 138 C132.17660912 141.13409236 135.13421369 144.38329403 138.046875 147.76171875 C145.0695479 155.80970189 152.44227123 163.56046133 159.73657227 171.36157227 C163.99463539 175.91685806 168.23022557 180.49212542 172.45410156 185.07910156 C176.34522775 189.30072819 180.26444414 193.49555463 184.1875 197.6875 C188.76090367 202.57707741 193.28217229 207.5060379 197.74609375 212.49609375 C204.22991383 219.69908972 210.85174512 226.77751909 217.47607422 233.85107422 C222.09629283 238.78577727 226.68935231 243.72146057 231.09765625 248.84765625 C234.40016571 252.58417106 237.82616074 256.20729287 241.22924805 259.85205078 C244.16556897 263.00324521 247.06304777 266.17385409 249.875 269.4375 C252.53022534 272.51782299 255.34969348 275.37023466 258.25 278.21875 C260.70328372 280.71584236 262.95797718 283.36906108 265.23828125 286.0234375 C266.98225521 287.98009121 268.80473677 289.80245307 270.6875 291.625 C273.64640244 294.52392469 275.84605909 297.46753691 278 301 C277.36384766 301.61875 277.36384766 301.61875 276.71484375 302.25 C272.93157988 305.97505981 269.35358499 309.80811831 265.88671875 313.828125 C263.02221542 317.12556568 260.08052435 320.35253967 257.1484375 323.58984375 C255.23806161 325.73293815 253.39355335 327.91433803 251.5625 330.125 C250.716875 331.07375 249.87125 332.0225 249 333 C248.34 333 247.68 333 247 333 C246.74347656 333.58523438 246.48695313 334.17046875 246.22265625 334.7734375 C244.89437838 337.19234608 243.43475199 338.73198872 241.4375 340.625 C238.85984611 343.04521959 238.85984611 343.04521959 237 346 C236.34 346 235.68 346 235 346 C234.60361328 346.88945313 234.60361328 346.88945313 234.19921875 347.796875 C232.95629575 350.08029054 231.69598354 351.47426723 229.8125 353.25 C227.36401744 355.62823921 225.03928947 358.03799459 222.8125 360.625 C218.19599294 365.97314099 213.37078636 371.12816737 208.56738281 376.30761719 C207.07062156 377.92374631 205.57746369 379.54310218 204.0859375 381.1640625 C199.79533643 385.82561726 195.49631499 390.47812533 191.15625 395.09375 C190.49729736 395.79459717 189.83834473 396.49544434 189.15942383 397.2175293 C187.88714503 398.56919754 186.61363439 399.91970786 185.33862305 401.26879883 C182.34362537 404.44948229 179.4025583 407.6610687 176.5390625 410.9609375 C172.22727581 415.92520136 167.69501965 420.67415324 163.16601562 425.43945312 C162.52728516 426.11556641 161.88855469 426.79167969 161.23046875 427.48828125 C160.37038208 428.39380737 160.37038208 428.39380737 159.49291992 429.31762695 C157.80908821 431.13755481 157.80908821 431.13755481 156 434 C155.34 434 154.68 434 154 434 C153.74605469 434.58265625 153.49210937 435.1653125 153.23046875 435.765625 C151.86679667 438.24188033 150.35774797 439.80520626 148.3125 441.75 C143.4887046 446.45123073 139.05261208 451.40404943 134.875 456.6875 C133.1951346 458.75933399 131.4077359 460.59699724 129.51660156 462.47192383 C126.4258945 465.58601518 123.44062416 468.80178394 120.4375 472 C119.37523193 473.12994385 119.37523193 473.12994385 118.29150391 474.28271484 C113.65274018 479.22311865 109.03548737 484.18247154 104.45239258 489.17456055 C101.77531881 492.08818119 99.07893965 494.98141574 96.359375 497.85546875 C95.73820801 498.51401855 95.11704102 499.17256836 94.47705078 499.85107422 C93.28607049 501.11238923 92.09198081 502.37077934 90.89404297 503.62548828 C87.4157389 507.31564806 84.31352849 511.12997557 81.36645508 515.25854492 C79.27401485 517.92521924 76.61827462 519.86263296 74 522 C72.36470445 523.76381471 70.81678344 525.59025892 69.2578125 527.421875 C65.63271841 531.5612558 61.83988212 535.54419407 58.0625 539.54443359 C55.42177185 542.3531414 52.82519861 545.16457001 50.3828125 548.1484375 C48.0509562 550.93901963 45.58775234 553.44721729 43 556 C40.77181219 558.33568185 38.57347027 560.69886362 36.375 563.0625 C35.7574585 563.72515869 35.13991699 564.38781738 34.50366211 565.07055664 C29.95725698 569.95516781 25.44767266 574.87198198 20.94921875 579.80078125 C18.65946486 582.29657275 16.34315313 584.7661878 14.01953125 587.23046875 C13.33366943 587.9582251 12.64780762 588.68598145 11.94116211 589.43579102 C10.58337468 590.87443923 9.22356942 592.31118619 7.86157227 593.74584961 C6.93622681 594.72630249 6.93622681 594.72630249 5.9921875 595.7265625 C5.43901855 596.31002441 4.88584961 596.89348633 4.31591797 597.49462891 C2.90375503 598.9825274 2.90375503 598.9825274 2 601 C1.34 601 0.68 601 0 601 C0 402.67 0 204.34 0 0 Z " fill="#FEFEFE" transform="translate(1026,501)"/>
<path d="M0 0 C1.65 1.65 3.3 3.3 5 5 C5.65742187 5.64582031 6.31484375 6.29164063 6.9921875 6.95703125 C10.97952982 10.88646611 14.74903897 14.92448013 18.390625 19.17578125 C19.84536251 20.82471916 21.35053206 22.35489869 22.9375 23.875 C25 26 25 26 25 28 C25.99 28.33 26.98 28.66 28 29 C29.4375 30.42578125 29.4375 30.42578125 31 32.3125 C38.09442109 40.66584759 45.63906086 48.62348367 53.125 56.625 C59.74771754 63.70581419 66.28378521 70.85240827 72.625 78.1875 C75.36976296 81.34334497 78.26668942 84.286003 81.24609375 87.21875 C84.89686493 90.92643744 88.23664766 94.91760592 91.59765625 98.88671875 C94.5965195 102.42246288 97.67858599 105.75766728 101 109 C102.29493646 110.26750136 103.58629439 111.53866407 104.875 112.8125 C105.49117187 113.41707031 106.10734375 114.02164063 106.7421875 114.64453125 C108.66104095 116.64638009 110.48685683 118.68490245 112.3046875 120.77734375 C115.85603352 124.86342833 119.53123441 128.81653071 123.25 132.75 C128.64984795 138.48546559 134.00800674 144.25357415 139.3203125 150.0703125 C142.22359124 153.24445106 145.14189895 156.40431589 148.0625 159.5625 C161.77761286 174.407664 161.77761286 174.407664 167.6875 181.25 C170.38194791 184.35460977 173.22504834 187.24889149 176.15795898 190.12695312 C177.93065239 191.92948511 179.5870589 193.78601534 181.234375 195.703125 C184.9637234 199.99226989 188.83775923 204.12801316 192.75 208.25 C208.49707329 224.91490895 208.49707329 224.91490895 215.6875 233.25 C218.0242665 235.94927204 220.45848313 238.49249961 223 241 C226.1640609 244.12171209 229.11198682 247.35630079 232.01171875 250.72265625 C234.50853298 253.58246508 237.06132997 256.38765171 239.625 259.1875 C240.08044189 259.68668945 240.53588379 260.18587891 241.00512695 260.70019531 C243.14993436 263.03828817 245.32661595 265.32661595 247.5703125 267.5703125 C249.88017786 269.88017786 252.07511394 272.2508221 254.25 274.6875 C255.41982422 275.99460937 255.41982422 275.99460937 256.61328125 277.328125 C257.40089844 278.20984375 258.18851563 279.0915625 259 280 C265.30659971 287.02451387 271.64393139 294.02026704 278 301 C274.08416439 306.69865508 269.6379607 311.52085734 264.66015625 316.3125 C261.91918532 319.08164538 259.38135558 321.96836307 256.83178711 324.91210938 C253.88676357 328.26887884 250.81740238 331.50538424 247.75 334.75 C238.1897515 344.90776404 228.79410642 355.18058067 219.64453125 365.7109375 C218.83371094 366.63132812 218.02289062 367.55171875 217.1875 368.5 C216.43855469 369.3559375 215.68960938 370.211875 214.91796875 371.09375 C213 373 213 373 211 373 C210.72800781 373.58910156 210.45601562 374.17820312 210.17578125 374.78515625 C207.26309362 380.2718469 202.4039466 384.70090927 198 389 C193.48223024 393.4220543 189.14345664 397.91130592 185.015625 402.69921875 C182.55511343 405.50782594 180.03381027 408.25773265 177.5 411 C177.00097168 411.54019775 176.50194336 412.08039551 175.98779297 412.63696289 C172.99413791 415.8688657 169.98302481 419.08373162 166.9609375 422.2890625 C166.28224609 423.00964844 165.60355469 423.73023438 164.90429688 424.47265625 C163.57170801 425.88604694 162.2371329 427.29756808 160.90039062 428.70703125 C160.29130859 429.35285156 159.68222656 429.99867188 159.0546875 430.6640625 C158.51312012 431.23592285 157.97155273 431.8077832 157.41357422 432.39697266 C155.80014105 434.15433174 155.80014105 434.15433174 154 437 C153.34 437 152.68 437 152 437 C151.72800781 437.58910156 151.45601562 438.17820312 151.17578125 438.78515625 C150.0244625 440.95391947 148.80016325 442.59506415 147.1875 444.4375 C146.46626953 445.27087891 146.46626953 445.27087891 145.73046875 446.12109375 C144.44722807 447.51440925 143.12574724 448.87271087 141.78515625 450.2109375 C138.19954855 453.80157411 134.72524697 457.49035933 131.25 461.1875 C130.53263672 461.94998047 129.81527344 462.71246094 129.07617188 463.49804688 C124.80869447 468.04409035 120.60493483 472.63748232 116.45703125 477.29296875 C113.08180708 481.01161795 109.63440547 484.66035955 106.1875 488.3125 C101.25071098 493.54405706 96.32059213 498.78072352 91.4375 504.0625 C90.54933594 505.02285156 89.66117188 505.98320313 88.74609375 506.97265625 C86.67352514 509.23678447 84.65282285 511.54148385 82.640625 513.859375 C78.34307467 518.78952099 73.84367658 523.52085906 69.34179688 528.26367188 C66.6577353 531.10642414 64.07569113 533.90300886 61.66796875 536.98828125 C61.11753906 537.65214844 60.56710937 538.31601563 60 539 C59.34 539 58.68 539 58 539 C57.73574219 539.59296875 57.47148438 540.1859375 57.19921875 540.796875 C55.95629575 543.08029054 54.69598354 544.47426723 52.8125 546.25 C50.36401744 548.62823921 48.03928947 551.03799459 45.8125 553.625 C41.1973561 558.9715618 36.37370853 564.12524546 31.57177734 569.30322266 C30.06219426 570.93285956 28.55576633 572.56533565 27.05078125 574.19921875 C21.5312271 580.19148262 15.99318413 586.16620845 10.4375 592.125 C9.84146973 592.7648584 9.24543945 593.4047168 8.63134766 594.06396484 C8.07108887 594.66418457 7.51083008 595.2644043 6.93359375 595.8828125 C6.43915771 596.41277832 5.94472168 596.94274414 5.43530273 597.48876953 C2.48961414 600.5902855 2.48961414 600.5902855 1 602 C0.67 602 0.34 602 0 602 C0 403.34 0 204.68 0 0 Z " fill="#FEFEFE" transform="translate(659,500)"/>
<path d="M0 0 C1.65 1.65 3.3 3.3 5 5 C5.72960937 5.71800781 6.45921875 6.43601562 7.2109375 7.17578125 C11.26853237 11.18210687 15.15134273 15.25185633 18.86328125 19.578125 C21.80021977 22.90701327 24.8387995 26.13676028 27.875 29.375 C36.71884236 38.82860078 36.71884236 38.82860078 40.3125 42.75 C41.35857422 43.88695312 41.35857422 43.88695312 42.42578125 45.046875 C44 47 44 47 45 50 C45.87591797 50.43505859 45.87591797 50.43505859 46.76953125 50.87890625 C49.7564491 52.38021172 51.47398383 54.44592229 53.6875 56.9375 C54.47511719 57.81277344 55.26273437 58.68804688 56.07421875 59.58984375 C58 62 58 62 59 65 C59.99 65.33 60.98 65.66 62 66 C63.6484375 67.890625 63.6484375 67.890625 65.375 70.25 C68.04874394 73.79452484 70.77627061 76.9335257 74 80 C78.61602556 84.50822029 83.01363847 89.10677931 87.21875 94 C89.63097809 96.70846663 92.20408097 99.23152645 94.8125 101.75 C96.71273884 103.70453138 98.50252246 105.7005086 100.2890625 107.7578125 C103.88333375 111.89591595 107.60860278 115.8938542 111.375 119.875 C116.23114096 125.03060199 121.0388534 130.21841222 125.75390625 135.50390625 C129.02886676 139.1433841 132.36419256 142.72632111 135.69335938 146.31616211 C138.40969668 149.2526134 141.08134903 152.21452949 143.6875 155.25 C146.88234527 158.95011277 150.33681458 162.35056846 153.8125 165.78515625 C156.39064197 168.39552499 158.79524647 171.11855029 161.1875 173.8984375 C166.37238486 179.9102221 171.68973205 185.75219662 177.34765625 191.3203125 C178.99379791 192.99369527 180.53158393 194.72093045 182.0625 196.5 C185.50520447 200.49075832 189.08547764 204.34123159 192.6875 208.1875 C193.29158691 208.83275635 193.89567383 209.4780127 194.51806641 210.14282227 C195.7457221 211.45398199 196.97342394 212.76509852 198.20117188 214.07617188 C200.95542642 217.0218187 203.69907051 219.9771428 206.4375 222.9375 C206.89664795 223.43209717 207.3557959 223.92669434 207.82885742 224.4362793 C210.40168362 227.22053256 212.91928035 230.04493509 215.40625 232.90625 C218.86920297 236.87853011 222.44451989 240.73158367 226.0625 244.5625 C227.38164877 245.96471361 228.7006558 247.36706057 230.01953125 248.76953125 C230.68162598 249.47287598 231.3437207 250.1762207 232.02587891 250.90087891 C243.49259283 263.09365733 254.88761402 275.35059517 266.02734375 287.84375 C267.38596501 289.3288172 268.79949792 290.76485763 270.25390625 292.15625 C272 294 272 294 272 296 C272.99 296.33 273.98 296.66 275 297 C277 300 277 300 276.9375 301.8125 C275.51368746 305.13472925 273.46680443 307.35269768 271 310 C270.34 310 269.68 310 269 310 C268.75765625 310.57105469 268.5153125 311.14210938 268.265625 311.73046875 C266.76380708 314.42354348 264.97573537 316.18139624 262.75 318.3125 C259.85775218 321.12557195 257.12667784 323.94749878 254.5625 327.0625 C253.716875 328.031875 252.87125 329.00125 252 330 C251.34 330 250.68 330 250 330 C249.75636719 330.73605469 249.51273438 331.47210937 249.26171875 332.23046875 C247.84747386 335.33480197 246.28694998 336.98285432 243.8125 339.3125 C240.2558807 342.68225664 237.02642249 346.21939059 233.82299805 349.91870117 C230.96057407 353.1867023 227.98193664 356.3413322 225 359.5 C224.0409375 360.5199707 224.0409375 360.5199707 223.0625 361.56054688 C220.36402395 364.43031291 217.66234263 367.29705399 214.9609375 370.1640625 C212.97283226 372.27498505 210.98638736 374.38746103 209 376.5 C208.401875 377.13357422 207.80375 377.76714844 207.1875 378.41992188 C204.24135056 381.55349377 201.35152137 384.72116478 198.53125 387.96875 C194.35609843 392.77297016 189.98192572 397.37990522 185.60546875 402 C181.845102 405.98614446 178.18216023 410.03396363 174.609375 414.18945312 C172.97022082 416.03350158 171.26068752 417.77223949 169.5 419.5 C167.20673964 421.75797943 165.03571972 424.05996504 162.9375 426.5 C158.80724746 431.29521383 154.45832893 435.88071097 150.12817383 440.49438477 C147.0683195 443.76153408 144.04313442 447.04197492 141.125 450.4375 C138.23863103 453.79526089 135.13448326 456.88307161 131.98046875 459.98828125 C129.38578854 462.62390316 126.98608298 465.4049328 124.57421875 468.20703125 C122.48987747 470.58100804 120.23369793 472.76630207 118 475 C114.97139547 478.30771122 111.98711132 481.65482771 109 485 C104.99666724 489.47388724 100.98836674 493.94146724 96.90625 498.34375 C96.37298096 498.91891357 95.83971191 499.49407715 95.2902832 500.08666992 C94.24877569 501.20813475 93.2057283 502.32817216 92.16088867 503.4465332 C89.29478646 506.53093216 86.61528614 509.69648067 84 513 C82.33333333 514.66666667 80.66666667 516.33333333 79 518 C76.64998202 520.65193001 74.31190421 523.31318591 71.98828125 525.98828125 C71.33214844 526.65214844 70.67601562 527.31601563 70 528 C69.34 528 68.68 528 68 528 C67.72800781 528.58910156 67.45601563 529.17820312 67.17578125 529.78515625 C66.0244625 531.95391947 64.80016325 533.59506415 63.1875 535.4375 C62.70667969 535.99308594 62.22585938 536.54867187 61.73046875 537.12109375 C60.45471173 538.50628365 59.14137919 539.85709029 57.80859375 541.1875 C54.09047949 544.91078549 50.48375933 548.73353405 46.875 552.5625 C45.80185547 553.69461914 45.80185547 553.69461914 44.70703125 554.84960938 C43.67255859 555.94692383 43.67255859 555.94692383 42.6171875 557.06640625 C41.99440918 557.72584229 41.37163086 558.38527832 40.72998047 559.06469727 C38.94478169 560.99044029 38.94478169 560.99044029 37.39892578 563.24584961 C36.93728027 563.82471924 36.47563477 564.40358887 36 565 C35.34 565 34.68 565 34 565 C33.76667969 565.56203125 33.53335938 566.1240625 33.29296875 566.703125 C31.68062924 569.56734142 29.6806438 571.47252021 27.3125 573.75 C23.67724081 577.31255401 20.23231887 580.92687798 16.921875 584.7890625 C14.43234072 587.65303892 11.87647835 590.45270174 9.3125 593.25 C8.84851807 593.75772949 8.38453613 594.26545898 7.90649414 594.78857422 C5.32918975 597.59655037 2.69751971 600.30248029 0 603 C0 404.01 0 205.02 0 0 Z " fill="#FEFEFE" transform="translate(292,500)"/>
<path d="M0 0 C0.33 0 0.66 0 1 0 C1 198.66 1 397.32 1 602 C-2.56521461 598.43478539 -2.11742543 594.5111503 -2.13293558 589.62167552 C-2.13059442 588.75887633 -2.12825325 587.89607715 -2.12584114 587.00713253 C-2.12729458 586.08341753 -2.12874802 585.15970253 -2.13024551 584.20799616 C-2.13391666 581.08940772 -2.13041378 577.97086781 -2.12698364 574.85227966 C-2.12813508 572.60258317 -2.12972275 570.35288687 -2.13171089 568.10319096 C-2.13590239 561.90157096 -2.13381417 555.69996627 -2.13072467 549.49834621 C-2.12870102 543.50111673 -2.13135635 537.50388985 -2.13387203 531.50666096 C-2.13914702 518.46870189 -2.13867697 505.43074772 -2.13579312 492.39278818 C-2.13327666 480.9586515 -2.13262123 469.52451661 -2.13381577 458.09037971 C-2.13389215 457.33163161 -2.13396854 456.57288351 -2.13404724 455.79114305 C-2.1343586 452.71063665 -2.134677 449.63013024 -2.135007 446.54962384 C-2.13806967 417.61323539 -2.13528891 388.67685004 -2.1299101 359.74046207 C-2.1251828 334.11497759 -2.12557294 308.4894981 -2.13037109 282.86401367 C-2.13575032 254.0391134 -2.13783382 225.21421589 -2.13475883 196.38931519 C-2.13443817 193.30235517 -2.13412532 190.21539515 -2.13381577 187.12843513 C-2.13373669 186.36842126 -2.13365761 185.60840739 -2.13357614 184.82536279 C-2.13244689 173.4343347 -2.13375383 162.04330862 -2.13629532 150.65228081 C-2.13918257 137.64711233 -2.13838211 124.64194948 -2.13301457 111.63678169 C-2.13037197 105.01892865 -2.12930154 98.40108337 -2.13266373 91.78322983 C-2.14389888 67.54912997 -2.08971976 43.32346047 -1.55441284 19.09437561 C-1.53499375 18.1622361 -1.51557465 17.23009658 -1.4955671 16.26971041 C-1.44022755 13.69731781 -1.37767163 11.12522971 -1.31185722 8.55308628 C-1.29555084 7.79411802 -1.27924446 7.03514975 -1.26244394 6.25318245 C-1.11579184 1.11579184 -1.11579184 1.11579184 0 0 Z " fill="#6A21ED" transform="translate(291,500)"/>
<path d="M0 0 C1.65 1.65 3.3 3.3 5 5 C4.01 5.33 3.02 5.66 2 6 C1.67 201.36 1.34 396.72 1 598 C1.99 598.33 2.98 598.66 4 599 C3.02149805 600.02104551 2.02019573 601.0206121 1 602 C0.67 602 0.34 602 0 602 C0 403.34 0 204.68 0 0 Z " fill="#FEE8FE" transform="translate(659,500)"/>
<path d="M0 0 C0.99 0.495 0.99 0.495 2 1 C1.67 197.35 1.34 393.7 1 596 C1.99 595.67 2.98 595.34 4 595 C4 598 4 598 2 601 C1.34 601 0.68 601 0 601 C0 402.67 0 204.34 0 0 Z " fill="#FEDAFE" transform="translate(1026,501)"/>
<path d="M0 0 C0.9075 0.185625 1.815 0.37125 2.75 0.5625 C5.84889905 1.21790136 5.84889905 1.21790136 8.125 0.3125 C10 0 10 0 12.25 1.5625 C14.45938645 4.6398597 14.47435776 6.28419753 14 10 C13.01 11.485 13.01 11.485 12 13 C12.639375 13.61875 13.27875 14.2375 13.9375 14.875 C17.47001951 18.38721767 20.72182355 22.15286172 24.01171875 25.890625 C25.82350446 28.05513264 25.82350446 28.05513264 28 29 C29.125 31.0625 29.125 31.0625 30 33 C32.31 32.67 34.62 32.34 37 32 C36.46375 32.7425 35.9275 33.485 35.375 34.25 C34.92125 35.1575 34.4675 36.065 34 37 C34.69140351 39.30287793 34.69140351 39.30287793 36 41 C31.6638818 38.89763966 29.11566796 36.03142938 26.0703125 32.42578125 C23.69351472 29.64089177 21.23089567 26.94166511 18.75 24.25 C18.28779053 23.74750732 17.82558105 23.24501465 17.34936523 22.72729492 C16.3928326 21.68742862 15.43604148 20.64780003 14.47900391 19.60839844 C12.95606876 17.95222532 11.43652641 16.29299979 9.91796875 14.6328125 C9.16918457 13.81441895 9.16918457 13.81441895 8.40527344 12.97949219 C7.44603146 11.93089966 6.48703646 10.88208113 5.52832031 9.83300781 C3.71617512 7.85379496 1.89781602 5.89781602 0 4 C0 2.68 0 1.36 0 0 Z " fill="#731CF8" transform="translate(306,512)"/>
<path d="M0 0 C1.35439668 2.70879335 1.06501451 5.00933268 1 8 C0.01 8 -0.98 8 -2 8 C-2.99 8.33 -3.98 8.66 -5 9 C-6.10636395 11.39068734 -6.10636395 11.39068734 -7 14 C-7.99 15.485 -7.99 15.485 -9 17 C-8.01 17 -7.02 17 -6 17 C-6.34714471 19.56887084 -6.65822739 21.51043382 -8.15625 23.65625 C-10.83627639 25.60948958 -12.91817977 25.29296194 -16.1875 25.1875 C-17.27417969 25.16042969 -18.36085938 25.13335938 -19.48046875 25.10546875 C-20.72763672 25.05326172 -20.72763672 25.05326172 -22 25 C-17.72304016 19.05437779 -13.25959381 13.11744262 -8 8 C-7.34 8 -6.68 8 -6 8 C-5.7525 7.4225 -5.505 6.845 -5.25 6.25 C-3.83316683 3.6997003 -2.12372463 1.98214299 0 0 Z " fill="#731DF8" transform="translate(358,1031)"/>
<path d="M0 0 C4.46334277 1.36379918 6.27482438 3.27559332 9 7 C9.5775 7.495 10.155 7.99 10.75 8.5 C12.53030442 10.6363653 12.21811874 12.30986889 12 15 C12.99 15.33 13.98 15.66 15 16 C15 17.32 15 18.64 15 20 C13.9275 20.12375 12.855 20.2475 11.75 20.375 C7.56176192 21.009235 7.56176192 21.009235 4 23 C3.32558869 24.6635479 2.6599679 26.33066942 2 28 C0.37550757 29.70779973 -1.29220027 31.37550757 -3 33 C-3.556875 33.763125 -4.11375 34.52625 -4.6875 35.3125 C-5.120625 35.869375 -5.55375 36.42625 -6 37 C-6.66 37 -7.32 37 -8 37 C-7.67 37.99 -7.34 38.98 -7 40 C-9.93828597 42.50298434 -12.17902761 43.46930939 -16 44 C-16 43.34 -16 42.68 -16 42 C-14.60037346 40.83933409 -13.19717279 39.68273823 -11.77734375 38.546875 C-7.84005359 35.12013456 -4.60593791 30.94770502 -1.29296875 26.9296875 C-0.76316406 26.29289063 -0.23335937 25.65609375 0.3125 25 C0.78300781 24.4225 1.25351562 23.845 1.73828125 23.25 C3 22 3 22 5 22 C5.268125 21.401875 5.53625 20.80375 5.8125 20.1875 C7 18 7 18 8.6875 16.5 C9.120625 16.005 9.55375 15.51 10 15 C9.60344746 11.40814912 7.96946849 9.53462401 5.5625 6.9375 C3.47083853 4.66243606 1.72328194 2.58492291 0 0 Z " fill="#762CE8" transform="translate(558,788)"/>
<path d="M0 0 C0.66 0 1.32 0 2 0 C2 0.99 2 1.98 2 3 C1.01 3.495 1.01 3.495 0 4 C-0.65213292 6.02463255 -0.65213292 6.02463255 -1 8 C-1.66 8 -2.32 8 -3 8 C-3.33 9.32 -3.66 10.64 -4 12 C-5.32 12 -6.64 12 -8 12 C-8.2475 12.969375 -8.495 13.93875 -8.75 14.9375 C-9.1625 15.948125 -9.575 16.95875 -10 18 C-12.125 18.875 -12.125 18.875 -14 19 C-14 19.66 -14 20.32 -14 21 C-14.66 21 -15.32 21 -16 21 C-15.67 21.99 -15.34 22.98 -15 24 C-15.845625 24.350625 -16.69125 24.70125 -17.5625 25.0625 C-21.78944647 27.44496074 -24.72624641 30.46473355 -28 34 C-28.66 33.67 -29.32 33.34 -30 33 C-29.57589844 32.5875 -29.15179687 32.175 -28.71484375 31.75 C-24.99940059 28.0917175 -21.49499948 24.32899371 -18.09375 20.37890625 C-14.8892025 16.73791851 -11.57601083 13.19798676 -8.26293945 9.65576172 C-5.97574416 7.19769047 -3.81923928 4.76624137 -1.76171875 2.10546875 C-1.18035156 1.41066406 -0.59898437 0.71585938 0 0 Z " fill="#7533E5" transform="translate(860,884)"/>
<path d="M0 0 C0.99 0.33 1.98 0.66 3 1 C1.87895467 2.31587941 0.75303035 3.62760353 -0.375 4.9375 C-1.00148438 5.66839844 -1.62796875 6.39929688 -2.2734375 7.15234375 C-4 9 -4 9 -6 10 C-7.05591481 12.04489904 -7.05591481 12.04489904 -8 14.4375 C-9.14709767 17.22906973 -9.84618666 18.84618666 -12 21 C-12 20.34 -12 19.68 -12 19 C-12.66 19 -13.32 19 -14 19 C-14 19.99 -14 20.98 -14 22 C-15.57421875 23.4296875 -15.57421875 23.4296875 -17.6875 24.875 C-21.13508921 27.32973225 -24.08288679 29.91619461 -27 33 C-28 34 -29 35 -30 36 C-30.66 35.67 -31.32 35.34 -32 35 C-30.71520959 33.49410612 -29.42195918 31.99542625 -28.125 30.5 C-27.04605469 29.24703125 -27.04605469 29.24703125 -25.9453125 27.96875 C-25.30335938 27.3190625 -24.66140625 26.669375 -24 26 C-23.34 26 -22.68 26 -22 26 C-21.72800781 25.41089844 -21.45601562 24.82179688 -21.17578125 24.21484375 C-18.26339186 18.72871489 -13.40470674 14.29727487 -9 10 C-7.76788653 8.79467161 -6.53887229 7.58616933 -5.3125 6.375 C-4.73113281 5.80523438 -4.14976562 5.23546875 -3.55078125 4.6484375 C-1.79748102 2.87617026 -1.79748102 2.87617026 0 0 Z " fill="#7330E4" transform="translate(825,922)"/>
<path d="M0 0 C0.68707555 2.49064888 1 4.37886292 1 7 C1.99 7 2.98 7 4 7 C4.226875 7.721875 4.45375 8.44375 4.6875 9.1875 C6.24471644 12.52439237 8.38054709 14.44948006 11 17 C11 17.66 11 18.32 11 19 C11.66 19 12.32 19 13 19 C13 19.66 13 20.32 13 21 C13.61875 21.2475 14.2375 21.495 14.875 21.75 C17.41292362 23.24289625 17.7414688 24.40427941 19 27 C20.32392972 28.01241685 21.65599167 29.01439389 23 30 C23 30.66 23 31.32 23 32 C23.66 32 24.32 32 25 32 C25 32.66 25 33.32 25 34 C25.66 34 26.32 34 27 34 C28.68732277 35.98260426 30.35366057 37.9832342 32 40 C32.99 40.495 32.99 40.495 34 41 C34.625 43.5625 34.625 43.5625 35 46 C34.30648438 45.30519531 33.61296875 44.61039063 32.8984375 43.89453125 C30.91042581 41.90582005 28.91453723 39.92538864 26.9140625 37.94921875 C21.67294098 32.75943432 16.46844668 27.59277029 11.68359375 21.97265625 C9.59849871 19.52956346 7.45863139 17.13961469 5.3125 14.75 C4.58675781 13.94046875 3.86101562 13.1309375 3.11328125 12.296875 C1.70059253 10.76145732 0.23787345 9.27066719 -1.26953125 7.828125 C-3 6 -3 6 -3 4 C-2.34 3.67 -1.68 3.34 -1 3 C-0.67 2.01 -0.34 1.02 0 0 Z " fill="#6F34D3" transform="translate(1255,740)"/>
<path d="M0 0 C0.33 0.99 0.66 1.98 1 3 C-1.64 5.64 -4.28 8.28 -7 11 C-6.01 12.485 -6.01 12.485 -5 14 C-5.375 17.1875 -5.375 17.1875 -6 20 C-7.5 18.625 -7.5 18.625 -9 17 C-9 16.34 -9 15.68 -9 15 C-13.45805787 18.7547235 -17.38263487 22.40872887 -21 27 C-21.66 27 -22.32 27 -23 27 C-23.268125 27.94875 -23.53625 28.8975 -23.8125 29.875 C-25 33 -25 33 -28 35 C-28.66 34.34 -29.32 33.68 -30 33 C-28.36382122 31.12350746 -26.72502333 29.24944102 -25.08203125 27.37890625 C-23.65462624 25.74796882 -22.23576003 24.10953009 -20.82421875 22.46484375 C-20.11910156 21.65144531 -19.41398437 20.83804688 -18.6875 20 C-17.70330078 18.8553125 -17.70330078 18.8553125 -16.69921875 17.6875 C-15 16 -15 16 -13 16 C-12.7628125 15.43410156 -12.525625 14.86820313 -12.28125 14.28515625 C-10.71901476 11.49885254 -8.80262557 9.64667486 -6.5 7.4375 C-3.97190847 5.0038015 -1.95327066 2.92990599 0 0 Z " fill="#7437DC" transform="translate(389,997)"/>
<path d="M0 0 C1.32 0.33 2.64 0.66 4 1 C4 1.66 4 2.32 4 3 C4.99 3.33 5.98 3.66 7 4 C7.66 3.34 8.32 2.68 9 2 C9.99 2 10.98 2 12 2 C11.79375 2.721875 11.5875 3.44375 11.375 4.1875 C10.94047789 7.44641585 11.58319331 9.08304504 13 12 C14.32 11.01 15.64 10.02 17 9 C17 10.98 17 12.96 17 15 C17.66 15.33 18.32 15.66 19 16 C19 16.99 19 17.98 19 19 C19.99 19.33 20.98 19.66 22 20 C23.38671875 21.62890625 23.38671875 21.62890625 24.6875 23.5625 C25.34298828 24.52349609 25.34298828 24.52349609 26.01171875 25.50390625 C26.33785156 25.99761719 26.66398437 26.49132812 27 27 C26.67 27.66 26.34 28.32 26 29 C24.90945313 27.81857422 24.90945313 27.81857422 23.796875 26.61328125 C23.31653809 26.0929834 22.83620117 25.57268555 22.34130859 25.03662109 C21.27105177 23.87703937 20.20106942 22.71720425 19.13134766 21.55712891 C16.2944116 18.48136281 13.45306771 15.40992489 10.6015625 12.34765625 C9.78993652 11.47403442 9.78993652 11.47403442 8.96191406 10.58276367 C7.92127435 9.46287525 6.87901092 8.34449298 5.83496094 7.2277832 C3.67139437 4.8961762 1.7693848 2.65407721 0 0 Z " fill="#7027E7" transform="translate(1076,554)"/>
<path d="M0 0 C0.495 0.99 0.495 0.99 1 2 C-0.13913379 5.41740136 -1.13412137 6.15619349 -3.875 8.375 C-7.03040484 11.0307055 -8.94792638 13.40887116 -11 17 C-12.33333333 17.66666667 -13.66666667 18.33333333 -15 19 C-15.144375 19.639375 -15.28875 20.27875 -15.4375 20.9375 C-16 23 -16 23 -18.125 24.25 C-23.38539124 27.45197728 -27.45644341 32.39916356 -30 38 C-30.99 38 -31.98 38 -33 38 C-31.69183914 35.13210889 -30.27313766 33.0011937 -28.1015625 30.72265625 C-27.25851562 29.82836914 -27.25851562 29.82836914 -26.3984375 28.91601562 C-25.81320312 28.30435547 -25.22796875 27.69269531 -24.625 27.0625 C-23.46971167 25.84661061 -22.316031 24.62919141 -21.1640625 23.41015625 C-20.34470215 22.54414795 -20.34470215 22.54414795 -19.50878906 21.66064453 C-18.17132156 20.1885646 -16.93245469 18.6282225 -15.7109375 17.05859375 C-14.86402344 16.03958984 -14.86402344 16.03958984 -14 15 C-13.34 15 -12.68 15 -12 15 C-11.66355469 14.18789063 -11.66355469 14.18789063 -11.3203125 13.359375 C-9.58851134 10.26467706 -7.28380732 7.82074395 -4.875 5.25 C-4.40707031 4.74339844 -3.93914062 4.23679687 -3.45703125 3.71484375 C-2.30873459 2.47280859 -1.15491328 1.23588506 0 0 Z " fill="#783EDC" transform="translate(425,958)"/>
<path d="M0 0 C7.05741329 2.87524245 11.85041547 10.12910161 16.79296875 15.671875 C18.77817757 18.03135419 18.77817757 18.03135419 21 19 C22.125 21.0625 22.125 21.0625 23 23 C26.465 22.505 26.465 22.505 30 22 C29.46375 22.7425 28.9275 23.485 28.375 24.25 C27.694375 25.61125 27.694375 25.61125 27 27 C27.69140351 29.30287793 27.69140351 29.30287793 29 31 C24.67195098 28.90155199 22.12355022 26.04600716 19.08984375 22.44140625 C17.07776557 20.09084763 14.99570664 17.81878398 12.88647461 15.55541992 C8.25718745 10.5860537 3.94203374 5.54015552 0 0 Z " fill="#6E32DA" transform="translate(313,522)"/>
<path d="M0 0 C0.99 0 1.98 0 3 0 C4.71140469 1.96185416 6.37873325 3.96302383 8 6 C8.66 6.33 9.32 6.66 10 7 C10.33 6.34 10.66 5.68 11 5 C15.7914429 8.15226506 16.5112326 10.60321817 18 16 C19.51440936 18.20409261 21.17431506 20.03018204 23 22 C22.67 22.66 22.34 23.32 22 24 C2.24657534 4.49315068 2.24657534 4.49315068 0 0 Z " fill="#762AE9" transform="translate(1136,619)"/>
<path d="M0 0 C1.33877662 4.01632987 0.49049413 6.09632491 -1 10 C-3.125 11.4375 -3.125 11.4375 -5 12 C-4.67 12.99 -4.34 13.98 -4 15 C-4.61875 15.2475 -5.2375 15.495 -5.875 15.75 C-8.35068687 17.20628639 -8.95125002 18.37812506 -10 21 C-10.66 20.34 -11.32 19.68 -12 19 C-11.67 18.01 -11.34 17.02 -11 16 C-11.99 16 -12.98 16 -14 16 C-13.15695312 15.09636719 -12.31390625 14.19273437 -11.4453125 13.26171875 C-10.33843161 12.07041474 -9.23166684 10.87900285 -8.125 9.6875 C-7.56941406 9.09259766 -7.01382813 8.49769531 -6.44140625 7.88476562 C-5.90644531 7.30791016 -5.37148438 6.73105469 -4.8203125 6.13671875 C-4.32805176 5.60780029 -3.83579102 5.07888184 -3.32861328 4.53393555 C-1.79418204 2.82718765 -1.79418204 2.82718765 0 0 Z " fill="#7221ED" transform="translate(753,1000)"/>
<path d="M0 0 C2.9375 0.8125 2.9375 0.8125 6 2 C6.33 2.99 6.66 3.98 7 5 C7.99 5 8.98 5 10 5 C10.33 5.66 10.66 6.32 11 7 C11.66 6.67 12.32 6.34 13 6 C14.25664978 8.90600261 15 10.79604584 15 14 C17.97 14.495 17.97 14.495 21 15 C21 16.32 21 17.64 21 19 C21.2981424 20.34164079 21.62243192 21.67851173 22 23 C13.66989674 16.2650229 6.90665093 8.14630622 0 0 Z " fill="#7225F1" transform="translate(434,654)"/>
<path d="M0 0 C0 3 0 3 -1.27734375 4.5 C-1.82519531 4.995 -2.37304688 5.49 -2.9375 6 C-5.27535925 8.12231195 -5.96275884 8.88827651 -7 12 C-7.66 12 -8.32 12 -9 12 C-9 12.66 -9 13.32 -9 14 C-9.99 14 -10.98 14 -12 14 C-12 15.65 -12 17.3 -12 19 C-12.9075 19.350625 -13.815 19.70125 -14.75 20.0625 C-17.986465 21.99193106 -18.49691102 22.48737928 -20.0625 25.625 C-22 29 -22 29 -24.75 29.9375 C-25.4925 29.958125 -26.235 29.97875 -27 30 C-22.84877668 24.18848142 -18.31942045 18.95883404 -13.375 13.8125 C-8.35797033 8.58636154 -8.35797033 8.58636154 -3.6640625 3.07421875 C-2 1 -2 1 0 0 Z " fill="#7636E2" transform="translate(328,1064)"/>
<path d="M0 0 C1.32 0.33 2.64 0.66 4 1 C3.01 1.33 2.02 1.66 1 2 C2.46519774 4.54140493 3.95224699 6.88875077 6 9 C9.21276343 9.5863982 9.21276343 9.5863982 12 9 C12.59732819 11.76264289 13 14.16032769 13 17 C14.43750191 18.68798827 14.43750191 18.68798827 16 20 C13 20 13 20 10.984375 18.3125 C10.24703125 17.549375 9.5096875 16.78625 8.75 16 C7.96238281 15.18660156 7.17476562 14.37320313 6.36328125 13.53515625 C3.15642375 10.09507275 0.04037499 6.58783802 -3 3 C-2.01 2.67 -1.02 2.34 0 2 C0 1.34 0 0.68 0 0 Z " fill="#732BE5" transform="translate(867,720)"/>
<path d="M0 0 C5.14918658 4.25798121 9.74541854 8.75878587 14.25 13.6875 C15.46313106 15.00428466 16.67665821 16.32070453 17.890625 17.63671875 C18.41688477 18.21123779 18.94314453 18.78575684 19.48535156 19.37768555 C20.95731519 20.95428101 22.46564081 22.48428953 24 24 C23.67 24.66 23.34 25.32 23 26 C17.68045774 22.8861216 13.64877887 18.98738414 10 14 C10 13.34 10 12.68 10 12 C8.68 11.34 7.36 10.68 6 10 C6 9.34 6 8.68 6 8 C5.34 8 4.68 8 4 8 C4 7.01 4 6.02 4 5 C3.01 5.33 2.02 5.66 1 6 C0.67 4.02 0.34 2.04 0 0 Z " fill="#EEDDFC" transform="translate(875,735)"/>
<path d="M0 0 C0.66 0 1.32 0 2 0 C1.61402985 2.79828356 1.19863427 3.8205884 -0.9375 5.75 C-3 7 -3 7 -5 7 C-5.99 8.485 -5.99 8.485 -7 10 C-6.34 10 -5.68 10 -5 10 C-5 11.32 -5 12.64 -5 14 C-8.63 14.33 -12.26 14.66 -16 15 C-9.66921606 6.01912046 -9.66921606 6.01912046 -5 4 C-4.01 4 -3.02 4 -2 4 C-1.34 2.68 -0.68 1.36 0 0 Z " fill="#711CF7" transform="translate(308,1089)"/>
<path d="M0 0 C0.33 1.65 0.66 3.3 1 5 C0.01 5.495 0.01 5.495 -1 6 C-1.33 6.99 -1.66 7.98 -2 9 C-1.34 9 -0.68 9 0 9 C0 9.66 0 10.32 0 11 C0.99 11.33 1.98 11.66 3 12 C3.68486725 13.32407669 4.34870203 14.65909241 5 16 C6.29470975 17.37086915 7.62150897 18.71340837 9 20 C8.67 20.66 8.34 21.32 8 22 C-6.22317814 8.10931174 -6.22317814 8.10931174 -10 1 C-9.01 1.33 -8.02 1.66 -7 2 C-7 2.66 -7 3.32 -7 4 C-6.01 4 -5.02 4 -4 4 C-4.33 3.34 -4.66 2.68 -5 2 C-2 0 -2 0 0 0 Z " fill="#722AE3" transform="translate(919,769)"/>
<path d="M0 0 C0.91963949 2.95418439 1.12217108 3.70814686 -0.125 6.6875 C-2 9 -2 9 -4.6875 9.8125 C-5.450625 9.874375 -6.21375 9.93625 -7 10 C-6.67 11.32 -6.34 12.64 -6 14 C-6.66 14 -7.32 14 -8 14 C-8.33 14.99 -8.66 15.98 -9 17 C-11.5625 18.1875 -11.5625 18.1875 -14 19 C-14 15.36101004 -13.33670965 14.9120832 -10.9375 12.3125 C-9.99003906 11.27029297 -9.99003906 11.27029297 -9.0234375 10.20703125 C-8.02183594 9.11455078 -8.02183594 9.11455078 -7 8 C-5.68372629 6.5033104 -4.37102516 5.00346871 -3.0625 3.5 C-2.04166667 2.33333333 -1.02083333 1.16666667 0 0 Z " fill="#7733EA" transform="translate(1254,855)"/>
<path d="M0 0 C1.32 0.66 2.64 1.32 4 2 C2.875 4.875 2.875 4.875 1 8 C-0.9812585 8.72045764 -2.98504093 9.38001259 -5 10 C-6.9021175 11.49423243 -8.64310771 13.08234258 -10.38671875 14.7578125 C-12 16 -12 16 -15 16 C-14.36384766 15.38125 -14.36384766 15.38125 -13.71484375 14.75 C-9.75129367 10.84742761 -6.01204355 6.81667838 -2.3828125 2.6015625 C-1.61429517 1.71147181 -0.83152881 0.83152881 0 0 Z " fill="#701EF1" transform="translate(500,877)"/>
<path d="M0 0 C0 3.61537605 -0.89229241 5.11165997 -3 8 C-3.99 8 -4.98 8 -6 8 C-6.33 9.32 -6.66 10.64 -7 12 C-7.66 11.67 -8.32 11.34 -9 11 C-9.226875 11.556875 -9.45375 12.11375 -9.6875 12.6875 C-11.37028092 15.65239972 -13.56108512 17.616515 -16 20 C-18.03793695 22.30166997 -20.02464837 24.64451198 -22 27 C-22.66 26.67 -23.32 26.34 -24 26 C-22.60770997 24.26797907 -21.21099444 22.53951516 -19.8125 20.8125 C-19.03519531 19.84957031 -18.25789063 18.88664062 -17.45703125 17.89453125 C-15.08925532 15.10514816 -12.61821871 12.55357134 -10 10 C-9.11699219 9.11699219 -8.23398438 8.23398438 -7.32421875 7.32421875 C-4.8828125 4.8828125 -2.44140625 2.44140625 0 0 Z " fill="#7538DA" transform="translate(1087,1037)"/>
<path d="M0 0 C0.33 0.66 0.66 1.32 1 2 C0.38125 2.721875 -0.2375 3.44375 -0.875 4.1875 C-2.85612401 6.80957589 -3.80910126 8.98305653 -5 12 C-6.375 13.8125 -6.375 13.8125 -8 15 C-9.32 15 -10.64 15 -12 15 C-13.73662334 18.22515763 -14.8905928 21.51329166 -16 25 C-17.32 24.01 -18.64 23.02 -20 22 C-19.52054932 21.49549316 -19.04109863 20.99098633 -18.54711914 20.47119141 C-16.38314867 18.19142055 -14.22278766 15.90826071 -12.0625 13.625 C-11.30775391 12.8309375 -10.55300781 12.036875 -9.77539062 11.21875 C-9.05673828 10.45820312 -8.33808594 9.69765625 -7.59765625 8.9140625 C-6.93258057 8.2123291 -6.26750488 7.5105957 -5.58227539 6.78759766 C-3.93092834 5.07681275 -3.93092834 5.07681275 -3 3 C-2.34 3 -1.68 3 -1 3 C-0.67 2.01 -0.34 1.02 0 0 Z " fill="#7835E7" transform="translate(720,1036)"/>
<path d="M0 0 C0.66 0.33 1.32 0.66 2 1 C-0.17269139 5.00232625 -2.75046452 7.83170291 -6 11 C-6.556875 11.763125 -7.11375 12.52625 -7.6875 13.3125 C-8.3371875 14.1478125 -8.3371875 14.1478125 -9 15 C-9.66 15 -10.32 15 -11 15 C-10.67 15.99 -10.34 16.98 -10 18 C-12.93828597 20.50298434 -15.17902761 21.46930939 -19 22 C-19 21.34 -19 20.68 -19 20 C-17.60037346 18.83933409 -16.19717279 17.68273823 -14.77734375 16.546875 C-11.4985398 13.69323464 -8.79655802 10.31582941 -6 7 C-4.85484541 5.66608367 -3.70906055 4.33270803 -2.5625 3 C-1.716875 2.01 -0.87125 1.02 0 0 Z " fill="#7B41DE" transform="translate(561,810)"/>
<path d="M0 0 C0.33 0.99 0.66 1.98 1 3 C0.195625 3.763125 -0.60875 4.52625 -1.4375 5.3125 C-4.16799024 7.79430898 -4.16799024 7.79430898 -5 11 C-9.60484731 16.05047769 -14.90321176 20.45742562 -20 25 C-20.66 24.67 -21.32 24.34 -22 24 C-21.5467334 23.52167725 -21.0934668 23.04335449 -20.62646484 22.55053711 C-18.54094288 20.34779425 -16.45796018 18.14266538 -14.375 15.9375 C-13.66214844 15.18533203 -12.94929688 14.43316406 -12.21484375 13.65820312 C-8.01281652 9.20559629 -3.94332821 4.68347972 0 0 Z " fill="#7538D6" transform="translate(1135,984)"/>
<path d="M0 0 C0.33 1.32 0.66 2.64 1 4 C0.50628906 4.37511719 0.01257813 4.75023437 -0.49609375 5.13671875 C-4.62913755 8.3284978 -4.62913755 8.3284978 -6.9375 12.875 C-6.958125 13.57625 -6.97875 14.2775 -7 15 C-7.59296875 15.09152344 -8.1859375 15.18304687 -8.796875 15.27734375 C-11.52534657 16.17232113 -12.47125041 17.33906301 -14.25 19.5625 C-14.77078125 20.20316406 -15.2915625 20.84382812 -15.828125 21.50390625 C-16.21484375 21.99761719 -16.6015625 22.49132812 -17 23 C-17.99 22.67 -18.98 22.34 -20 22 C-19.60731934 21.58226318 -19.21463867 21.16452637 -18.81005859 20.73413086 C-16.99680489 18.80338599 -15.18589495 16.87045728 -13.375 14.9375 C-12.75753906 14.28072266 -12.14007813 13.62394531 -11.50390625 12.94726562 C-7.55117487 8.7240842 -3.73416087 4.41779955 0 0 Z " fill="#7438E1" transform="translate(460,920)"/>
<path d="M0 0 C0.33 0.66 0.66 1.32 1 2 C0.236875 2.886875 -0.52625 3.77375 -1.3125 4.6875 C-2.94252415 6.63345579 -4.25617156 8.43036821 -5.5625 10.625 C-7.12048713 13.19906569 -8.70125997 15.0604381 -11 17 C-11.99 17 -12.98 17 -14 17 C-14.33 18.65 -14.66 20.3 -15 22 C-16.32 21.67 -17.64 21.34 -19 21 C-18.01 19.515 -18.01 19.515 -17 18 C-16.34 18 -15.68 18 -15 18 C-14.74863281 17.41992188 -14.49726562 16.83984375 -14.23828125 16.2421875 C-12.8455535 13.72033978 -11.27063548 12.10855921 -9.1875 10.125 C-5.87478645 6.90279775 -2.88535982 3.60669977 0 0 Z " fill="#722FE1" transform="translate(1197,917)"/>
<path d="M0 0 C0.99 0.33 1.98 0.66 3 1 C1.38405168 3.04119788 -0.2856382 5.04072937 -2 7 C-2.66 7 -3.32 7 -4 7 C-4.2475 7.57492187 -4.495 8.14984375 -4.75 8.7421875 C-6.18881835 11.34105314 -7.86739609 13.06296019 -10 15.125 C-10.70125 15.80820312 -11.4025 16.49140625 -12.125 17.1953125 C-12.74375 17.79085937 -13.3625 18.38640625 -14 19 C-14.66 19.66 -15.32 20.32 -16 21 C-15.67 19.02 -15.34 17.04 -15 15 C-13.68 14.67 -12.36 14.34 -11 14 C-10.938125 13.236875 -10.87625 12.47375 -10.8125 11.6875 C-9.7340866 8.12044028 -8.19330413 7.74871416 -5 6 C-3.98199424 4.68036291 -2.97751635 3.34990354 -2 2 C-1.34 2 -0.68 2 0 2 C0 1.34 0 0.68 0 0 Z " fill="#F6E9FA" transform="translate(1184,928)"/>
<path d="M0 0 C0.33 0.66 0.66 1.32 1 2 C0.67 2.66 0.34 3.32 0 4 C1.32 4.66 2.64 5.32 4 6 C3.67 7.32 3.34 8.64 3 10 C1.203125 10.67578125 1.203125 10.67578125 -1 11 C-2.703125 9.85546875 -2.703125 9.85546875 -4.25 8.1875 C-4.77078125 7.64480469 -5.2915625 7.10210938 -5.828125 6.54296875 C-7 5 -7 5 -7 3 C-6.401875 2.87625 -5.80375 2.7525 -5.1875 2.625 C-2.73768652 2.04524015 -2.73768652 2.04524015 0 0 Z " fill="#6F24ED" transform="translate(728,563)"/>
<path d="M0 0 C0.33 0.66 0.66 1.32 1 2 C0.0022242 4.99332739 -0.7522025 5.94766315 -3 8 C-2.34 8 -1.68 8 -1 8 C-0.67 9.65 -0.34 11.3 0 13 C-0.721875 12.79375 -1.44375 12.5875 -2.1875 12.375 C-5.52495452 11.93000606 -7.04502633 12.4447507 -10 14 C-11.77277259 15.52007842 -11.77277259 15.52007842 -13 17 C-13.66 16.67 -14.32 16.34 -15 16 C-14.33613281 15.34773438 -13.67226563 14.69546875 -12.98828125 14.0234375 C-8.42649537 9.50826841 -3.97889622 5.03993521 0 0 Z " fill="#722DE2" transform="translate(736,1019)"/>
<path d="M0 0 C0.99 0.33 1.98 0.66 3 1 C0.41770601 3.75097755 -2.16601831 6.50060772 -4.75 9.25 C-5.47960937 10.02730469 -6.20921875 10.80460938 -6.9609375 11.60546875 C-7.66992188 12.35957031 -8.37890625 13.11367188 -9.109375 13.890625 C-9.75874023 14.58188477 -10.40810547 15.27314453 -11.07714844 15.98535156 C-13.02109978 18.02210709 -15.00140648 20.01695974 -17 22 C-16.49396008 19.83125748 -16.00016187 18.00032373 -15 16 C-14.34 16 -13.68 16 -13 16 C-13 15.34 -13 14.68 -13 14 C-12.34 14 -11.68 14 -11 14 C-10.731875 13.360625 -10.46375 12.72125 -10.1875 12.0625 C-9 10 -9 10 -6 9 C-5.87625 8.4225 -5.7525 7.845 -5.625 7.25 C-4.70302589 3.93089319 -2.48202881 2.29110352 0 0 Z " fill="#F0D9FD" transform="translate(795,952)"/>
<path d="M0 0 C3.56777719 1.32139896 5.38316604 3.49217905 7.72265625 6.421875 C10.69230823 10.09080283 13.86871408 12.95280628 17.8125 15.5 C19.6171875 16.73046875 19.6171875 16.73046875 21 18 C21.4375 20.8125 21.4375 20.8125 21 23 C16.803714 19.72484995 13.32771389 16.24983175 9.87890625 12.19921875 C7.14989401 9.00496949 4.32105288 5.90165811 1.50390625 2.78515625 C0 1 0 1 0 0 Z " fill="#7233DD" transform="translate(537,765)"/>
<path d="M0 0 C3.36179774 1.44077046 5.59156268 3.24750021 8 6 C8 6.66 8 7.32 8 8 C8.66 8 9.32 8 10 8 C10 8.66 10 9.32 10 10 C10.66 10 11.32 10 12 10 C13.69140625 11.64453125 13.69140625 11.64453125 15.5625 13.8125 C16.18253906 14.52019531 16.80257812 15.22789062 17.44140625 15.95703125 C19 18 19 18 20 21 C20.66 21 21.32 21 22 21 C22.66 22.65 23.32 24.3 24 26 C19.4567704 22.29124114 15.55416475 18.48678453 11.765625 14.015625 C10.0095028 12.01084833 8.16588093 10.16398157 6.25 8.3125 C3.64193953 5.75718682 1.68641409 3.27362736 0 0 Z " fill="#6F30DA" transform="translate(513,739)"/>
<path d="M0 0 C1.31371987 0.47581198 2.62594546 0.95575149 3.9375 1.4375 C4.66839844 1.70433594 5.39929688 1.97117187 6.15234375 2.24609375 C8 3 8 3 9 4 C9.04080783 5.99958364 9.04254356 8.00045254 9 10 C9.66 10 10.32 10 11 10 C10.67 11.32 10.34 12.64 10 14 C8.32401988 12.23722805 6.65940764 10.46575711 5 8.6875 C4.52304687 8.18798828 4.04609375 7.68847656 3.5546875 7.17382812 C0 3.33984375 0 3.33984375 0 0 Z " fill="#7A30EE" transform="translate(818,670)"/>
<path d="M0 0 C0.33 1.32 0.66 2.64 1 4 C0.50628906 4.40992188 0.01257813 4.81984375 -0.49609375 5.2421875 C-1.45708984 6.05042969 -1.45708984 6.05042969 -2.4375 6.875 C-3.07558594 7.40867187 -3.71367188 7.94234375 -4.37109375 8.4921875 C-6.10805004 9.9222757 -6.10805004 9.9222757 -7 12 C-7.66 12 -8.32 12 -9 12 C-9.08121094 12.58265625 -9.16242187 13.1653125 -9.24609375 13.765625 C-10.22972487 16.68084261 -11.70618481 17.80510492 -14.0625 19.75 C-15.16271484 20.67039062 -15.16271484 20.67039062 -16.28515625 21.609375 C-16.85105469 22.06828125 -17.41695312 22.5271875 -18 23 C-18.66 22.67 -19.32 22.34 -20 22 C-19.57178955 21.5467334 -19.1435791 21.0934668 -18.70239258 20.62646484 C-16.73729331 18.54433536 -14.77488297 16.45968963 -12.8125 14.375 C-12.13896484 13.66214844 -11.46542969 12.94929687 -10.77148438 12.21484375 C-7.03894055 8.24560203 -3.43550509 4.22934024 0 0 Z " fill="#7336DC" transform="translate(922,817)"/>
<path d="M0 0 C1.30324219 0.17015625 1.30324219 0.17015625 2.6328125 0.34375 C2.9628125 1.33375 3.2928125 2.32375 3.6328125 3.34375 C-1.82850137 6.26491788 -1.82850137 6.26491788 -4.9296875 6.71875 C-8.40339756 7.60944489 -10.01908746 9.72729567 -12.3671875 12.34375 C-13.0271875 12.01375 -13.6871875 11.68375 -14.3671875 11.34375 C-12.67664694 9.49077315 -10.96796463 7.66341656 -9.2421875 5.84375 C-8.530625 5.05677734 -8.530625 5.05677734 -7.8046875 4.25390625 C-5.18038035 1.52320827 -3.82493745 0.39048085 0 0 Z " fill="#6C24EB" transform="translate(937.3671875,804.65625)"/>
<path d="M0 0 C0.99 0.33 1.98 0.66 3 1 C-1.62661705 7.73304432 -7.13121677 13.33998772 -13 19 C-13.33 18.01 -13.66 17.02 -14 16 C-13.360625 15.7525 -12.72125 15.505 -12.0625 15.25 C-9.81258459 14.18437567 -9.81258459 14.18437567 -9.25 11.875 C-9.1675 11.25625 -9.085 10.6375 -9 10 C-8.01 10 -7.02 10 -6 10 C-6 9.01 -6 8.02 -6 7 C-5.34 7 -4.68 7 -4 7 C-3.67 6.01 -3.34 5.02 -3 4 C-2.34 3.67 -1.68 3.34 -1 3 C-0.67 2.01 -0.34 1.02 0 0 Z " fill="#ECD2FB" transform="translate(934,800)"/>
<path d="M0 0 C0 0.99 0 1.98 0 3 C-1 4 -2 5 -3 6 C-3.45375 6.94875 -3.9075 7.8975 -4.375 8.875 C-6.18207452 12.3501433 -7.99525408 14.49604507 -11 17 C-13.8125 17.8125 -13.8125 17.8125 -16 18 C-4.85714286 4.85714286 -4.85714286 4.85714286 0 0 Z " fill="#773BE2" transform="translate(1046,1081)"/>
<path d="M0 0 C5.46875 4.4921875 5.46875 4.4921875 7 6 C7 6.66 7 7.32 7 8 C7.99 8.33 8.98 8.66 10 9 C10.33 9.99 10.66 10.98 11 12 C7.37 11.67 3.74 11.34 0 11 C0.33 10.34 0.66 9.68 1 9 C1.66 9 2.32 9 3 9 C2.01 6.03 1.02 3.06 0 0 Z " fill="#F1E4FA" transform="translate(344,557)"/>
<path d="M0 0 C0 3.96121655 -0.54960395 5.51207094 -3.25 8.4375 C-6 11 -6 11 -8.625 13 C-11.13888735 15.11695777 -12.47546753 17.11141217 -14 20 C-14.99 19.67 -15.98 19.34 -17 19 C-8.83670938 8.56800331 -8.83670938 8.56800331 -4 4 C-3.236875 3.236875 -2.47375 2.47375 -1.6875 1.6875 C-1.130625 1.130625 -0.57375 0.57375 0 0 Z " fill="#7230E0" transform="translate(879,864)"/>
<path d="M0 0 C0.33 0.66 0.66 1.32 1 2 C-0.0828125 3.051875 -0.0828125 3.051875 -1.1875 4.125 C-5.70230637 8.66538601 -9.3431737 13.12701554 -12 19 C-13.65 19 -15.3 19 -17 19 C-12.13998705 11.84327206 -6.18597308 5.98784583 0 0 Z " fill="#7537D8" transform="translate(778,974)"/>
<path d="M0 0 C0.33 0.99 0.66 1.98 1 3 C1.350625 3.61875 1.70125 4.2375 2.0625 4.875 C3.17123324 7.38812869 3.1509995 9.28200903 3 12 C2.01 11.01 1.02 10.02 0 9 C-1.093125 9.33 -2.18625 9.66 -3.3125 10 C-7 11 -7 11 -10 11 C-6.79239749 7.19364503 -3.59253891 3.45436433 0 0 Z " fill="#732CE7" transform="translate(1277,830)"/>
<path d="M0 0 C0.66 0.99 1.32 1.98 2 3 C-0.64 5.64 -3.28 8.28 -6 11 C-6.66 10.67 -7.32 10.34 -8 10 C-8 8.35 -8 6.7 -8 5 C-6.35 4.34 -4.7 3.68 -3 3 C-3 2.34 -3 1.68 -3 1 C-2.01 0.67 -1.02 0.34 0 0 Z " fill="#F9F6F2" transform="translate(1096,1023)"/>
<path d="M0 0 C1.4540625 0.0309375 1.4540625 0.0309375 2.9375 0.0625 C2.6075 0.7225 2.2775 1.3825 1.9375 2.0625 C1.2775 2.0625 0.6175 2.0625 -0.0625 2.0625 C-0.206875 2.825625 -0.35125 3.58875 -0.5 4.375 C-1.0625 7.0625 -1.0625 7.0625 -2.0625 10.0625 C-5.125 11.25 -5.125 11.25 -8.0625 12.0625 C-8.0625 10.7425 -8.0625 9.4225 -8.0625 8.0625 C-6.7425 8.0625 -5.4225 8.0625 -4.0625 8.0625 C-4.083125 6.928125 -4.10375 5.79375 -4.125 4.625 C-4.04530802 0.08255731 -4.04530802 0.08255731 0 0 Z " fill="#FCFDEF" transform="translate(1260.0625,839.9375)"/>
<path d="M0 0 C0.33 0.99 0.66 1.98 1 3 C-1.98549535 7.03919959 -5.40489342 10.49257895 -9 14 C-10.1054757 15.10285608 -11.20962854 16.20703964 -12.3125 17.3125 C-13.199375 18.199375 -14.08625 19.08625 -15 20 C-15.66 19.67 -16.32 19.34 -17 19 C-16.19175781 18.13117187 -15.38351562 17.26234375 -14.55078125 16.3671875 C-13.47127513 15.20319829 -12.3918525 14.03913165 -11.3125 12.875 C-10.78205078 12.30523438 -10.25160156 11.73546875 -9.70507812 11.1484375 C-6.34790794 7.52351755 -3.13096309 3.82221468 0 0 Z " fill="#7B3EDE" transform="translate(1300,805)"/>
<path d="M0 0 C0.99 0.33 1.98 0.66 3 1 C1.38405168 3.04119788 -0.2856382 5.04072937 -2 7 C-2.66 7 -3.32 7 -4 7 C-4.268125 7.61875 -4.53625 8.2375 -4.8125 8.875 C-6 11 -6 11 -9 13 C-9.5625 10.4375 -9.5625 10.4375 -9 7 C-6.32145612 4.18918234 -3.41903251 1.84828528 0 0 Z " fill="#F5E7FD" transform="translate(721,1032)"/>
<path d="M0 0 C1.35439668 2.70879335 1.06501451 5.00933268 1 8 C0.01 8 -0.98 8 -2 8 C-5.11332248 8.66868314 -5.11332248 8.66868314 -6.1875 11.0625 C-6.455625 11.701875 -6.72375 12.34125 -7 13 C-7.99 12.34 -8.98 11.68 -10 11 C-9.34 10.01 -8.68 9.02 -8 8 C-7.34 8 -6.68 8 -6 8 C-5.7525 7.4225 -5.505 6.845 -5.25 6.25 C-3.83316683 3.6997003 -2.12372463 1.98214299 0 0 Z " fill="#712BE6" transform="translate(358,1031)"/>
<path d="M0 0 C2.4375 0.8125 2.4375 0.8125 5 2 C5.33 2.99 5.66 3.98 6 5 C6.66 5 7.32 5 8 5 C8 5.66 8 6.32 8 7 C8.66 7 9.32 7 10 7 C11.68732277 8.98260426 13.35366057 10.9832342 15 13 C15.66 13.33 16.32 13.66 17 14 C17.625 16.5625 17.625 16.5625 18 19 C17.31550781 18.31421875 16.63101562 17.6284375 15.92578125 16.921875 C13.84665074 14.84201111 11.75913908 12.77087998 9.66796875 10.703125 C8.5077816 9.55211448 7.34762577 8.40107239 6.1875 7.25 C5.2912793 6.36634766 5.2912793 6.36634766 4.37695312 5.46484375 C2.89903092 3.99536682 1.44698549 2.49994982 0 1 C0 0.67 0 0.34 0 0 Z " fill="#7737DC" transform="translate(1272,767)"/>
<path d="M0 0 C3.30653354 1.41088411 5.1547817 3.05531369 7.4375 5.8125 C10.16128304 9.03204654 12.97361764 12.05768382 16 15 C17 16 18 17 19 18 C18.67 18.99 18.34 19.98 18 21 C0 1.63106796 0 1.63106796 0 0 Z " fill="#7030DF" transform="translate(884,743)"/>
<path d="M0 0 C5 5 10 10 15 15 C14.01 15.66 13.02 16.32 12 17 C10.8553125 15.6078125 10.8553125 15.6078125 9.6875 14.1875 C8.31848811 12.53776376 6.98479123 10.98539958 5.4375 9.5 C2.92959435 6.88305498 0 3.73153036 0 0 Z " fill="#EDDBFC" transform="translate(847,704)"/>
<path d="M0 0 C0.66 0.33 1.32 0.66 2 1 C0.61087093 2.7553265 -0.78661773 4.50403907 -2.1875 6.25 C-2.96480469 7.22453125 -3.74210937 8.1990625 -4.54296875 9.203125 C-6.855712 11.83575483 -9.19803053 13.90972082 -12 16 C-10.90173399 10.06936356 -7.90199693 6.39369018 -3 3 C-2.34 3 -1.68 3 -1 3 C-0.67 2.01 -0.34 1.02 0 0 Z " fill="#F8E8FB" transform="translate(1199,912)"/>
<path d="M0 0 C4.26640677 1.7654097 5.91583759 4.39732513 8.4375 8.125 C10.15200716 10.18240859 11.60699643 10.87645564 14 12 C16.11057699 14.93973224 17 16.34648137 17 20 C4.44397783 7.64505291 4.44397783 7.64505291 0 2 C0 1.34 0 0.68 0 0 Z " fill="#6D2CD4" transform="translate(798,649)"/>
<path d="M0 0 C0.33 0.99 0.66 1.98 1 3 C-1.64 5.64 -4.28 8.28 -7 11 C-6.01 12.485 -6.01 12.485 -5 14 C-5.375 17.1875 -5.375 17.1875 -6 20 C-8.64866569 18.1238618 -9.00101937 16.99469928 -9.625 13.75 C-8.84886344 9.09318062 -7.17361125 7.61379757 -3.7265625 4.578125 C-1.77269477 2.91895465 -1.77269477 2.91895465 0 0 Z " fill="#6F27E6" transform="translate(389,997)"/>
<path d="M0 0 C0.33 1.32 0.66 2.64 1 4 C0.319375 4.33 -0.36125 4.66 -1.0625 5 C-6.23245927 8.51997227 -10.4058222 13.28769715 -13 19 C-13.99 19 -14.98 19 -16 19 C-14.62736637 15.94839391 -13.04043427 13.75173068 -10.7421875 11.328125 C-10.11699219 10.66425781 -9.49179687 10.00039063 -8.84765625 9.31640625 C-8.19667969 8.63449219 -7.54570312 7.95257812 -6.875 7.25 C-6.21628906 6.55261719 -5.55757813 5.85523438 -4.87890625 5.13671875 C-3.25672226 3.42049511 -1.63034621 1.70846565 0 0 Z " fill="#753BD9" transform="translate(408,977)"/>
<path d="M0 0 C0.33 1.32 0.66 2.64 1 4 C0.01 4 -0.98 4 -2 4 C-2.70074844 7.153368 -3 9.72724974 -3 13 C-3.763125 12.835 -4.52625 12.67 -5.3125 12.5 C-8.03596236 11.90854604 -8.03596236 11.90854604 -11 12 C-10.04882866 10.8274869 -9.08882991 9.66212985 -8.125 8.5 C-7.32449219 7.52546875 -7.32449219 7.52546875 -6.5078125 6.53125 C-6.01023437 6.0259375 -5.51265625 5.520625 -5 5 C-4.34 5 -3.68 5 -3 5 C-2.690625 4.360625 -2.38125 3.72125 -2.0625 3.0625 C-1 1 -1 1 0 0 Z " fill="#7531E5" transform="translate(1266,842)"/>
<path d="M0 0 C0.66 0 1.32 0 2 0 C3.79068573 2.6860286 4.66055791 4.6626589 5.625 7.6875 C5.88539062 8.49574219 6.14578125 9.30398438 6.4140625 10.13671875 C6.60742188 10.75160156 6.80078125 11.36648438 7 12 C6.01 12 5.02 12 4 12 C2.39453125 10.25 2.39453125 10.25 0.8125 8 C0.28269531 7.2575 -0.24710938 6.515 -0.79296875 5.75 C-1.19128906 5.1725 -1.58960938 4.595 -2 4 C-1.34 2.68 -0.68 1.36 0 0 Z " fill="#7229EC" transform="translate(1177,657)"/>
<path d="M0 0 C1.1725131 0.95117134 2.33787015 1.91117009 3.5 2.875 C4.47453125 3.67550781 4.47453125 3.67550781 5.46875 4.4921875 C5.9740625 4.98976563 6.479375 5.48734375 7 6 C7 6.66 7 7.32 7 8 C7.598125 8.226875 8.19625 8.45375 8.8125 8.6875 C11.56351888 10.33811133 12.52484637 12.1972081 14 15 C13.01 15 12.02 15 11 15 C11 14.01 11 13.02 11 12 C9.68 11.67 8.36 11.34 7 11 C7 10.34 7 9.68 7 9 C6.01 8.67 5.02 8.34 4 8 C3.33333333 6.33333333 2.66666667 4.66666667 2 3 C1.01 2.67 0.02 2.34 -1 2 C-0.67 1.34 -0.34 0.68 0 0 Z " fill="#F1DDFC" transform="translate(330,542)"/>
<path d="M0 0 C0 3 0 3 -2 6 C-2 6.66 -2 7.32 -2 8 C-3.99284138 9.3440093 -5.99419671 10.67541292 -8 12 C-9.70328319 13.6292274 -11.38161281 15.28641357 -13 17 C-13.66 16.67 -14.32 16.34 -15 16 C-13.38405168 13.95880212 -11.7143618 11.95927063 -10 10 C-9.34 10 -8.68 10 -8 10 C-7.79375 9.46375 -7.5875 8.9275 -7.375 8.375 C-5.42003056 4.9982346 -2.81776305 2.69525161 0 0 Z " fill="#773CD7" transform="translate(1177,939)"/>
<path d="M0 0 C0.99 0 1.98 0 3 0 C3.185625 1.2065625 3.185625 1.2065625 3.375 2.4375 C3.58125 3.283125 3.7875 4.12875 4 5 C4.66 5.33 5.32 5.66 6 6 C6 6.66 6 7.32 6 8 C6.99 8.33 7.98 8.66 9 9 C9.99 10.485 9.99 10.485 11 12 C10.67 12.99 10.34 13.98 10 15 C1.70637547 6.9108758 1.70637547 6.9108758 0 4 C0 2.68 0 1.36 0 0 Z " fill="#6D26E9" transform="translate(292,496)"/>
<path d="M0 0 C0.99 0.66 1.98 1.32 3 2 C0.63707344 4.52588702 -0.66462511 5.88820837 -4 7 C-4.73323796 9.01508358 -4.73323796 9.01508358 -5 11 C-5.66 11 -6.32 11 -7 11 C-7 10.34 -7 9.68 -7 9 C-7.99 8.67 -8.98 8.34 -10 8 C-10 7.01 -10 6.02 -10 5 C-7.36 5 -4.72 5 -2 5 C-1.855625 4.360625 -1.71125 3.72125 -1.5625 3.0625 C-1 1 -1 1 0 0 Z " fill="#F8FAEF" transform="translate(1178,931)"/>
<path d="M0 0 C4.13621084 3.3810038 7.81316569 6.66590534 11 11 C10.34 11.66 9.68 12.32 9 13 C8.67 12.34 8.34 11.68 8 11 C7.01 11.33 6.02 11.66 5 12 C4.9175 11.236875 4.835 10.47375 4.75 9.6875 C3.83627726 6.41332685 2.64500069 5.96241986 0 4 C0 2.68 0 1.36 0 0 Z " fill="#F2E1FB" transform="translate(747,596)"/>
<path d="M0 0 C4.88049925 3.9419417 9.0580583 8.11950075 13 13 C12.01 13.495 12.01 13.495 11 14 C11 13.34 11 12.68 11 12 C10.38125 11.9175 9.7625 11.835 9.125 11.75 C7 11 7 11 5.75 8.9375 C5.37875 7.9784375 5.37875 7.9784375 5 7 C4.34 7 3.68 7 3 7 C0.70351351 4.4385343 0 3.52032428 0 0 Z " fill="#EFDBFC" transform="translate(697,542)"/>
<path d="M0 0 C1.98 0.99 1.98 0.99 4 2 C4 2.66 4 3.32 4 4 C4.66 4 5.32 4 6 4 C6 4.66 6 5.32 6 6 C6.99 6 7.98 6 9 6 C10.38123963 7.96722008 11.71488126 9.96868328 13 12 C13.66 12.33 14.32 12.66 15 13 C14.67 13.99 14.34 14.98 14 16 C11.65861457 13.71643754 9.32833018 11.42186626 7 9.125 C5.99839844 8.14853516 5.99839844 8.14853516 4.9765625 7.15234375 C4.34492187 6.52714844 3.71328125 5.90195312 3.0625 5.2578125 C2.47597656 4.6817627 1.88945313 4.10571289 1.28515625 3.51220703 C0 2 0 2 0 0 Z " fill="#6D31D7" transform="translate(1229,719)"/>
<path d="M0 0 C0.515625 0.268125 1.03125 0.53625 1.5625 0.8125 C4.66401415 2.32349407 7.82262806 3.65572726 11 5 C11 6.32 11 7.64 11 9 C11.2981424 10.34164079 11.62243192 11.67851173 12 13 C7.07091854 9.12207712 3.4576289 5.23883167 0 0 Z " fill="#7229E1" transform="translate(444,664)"/>
<path d="M0 0 C2.93200474 2.85276137 5.64315404 5.65079784 8 9 C6.6875 11 6.6875 11 5 13 C4.01 13 3.02 13 2 13 C2.226875 12.113125 2.45375 11.22625 2.6875 10.3125 C3.0580607 6.38455656 2.19715036 5.16389652 0 2 C0 1.34 0 0.68 0 0 Z " fill="#F9F9F2" transform="translate(1142,626)"/>
<path d="M0 0 C0.66 0.66 1.32 1.32 2 2 C1.625 4.125 1.625 4.125 1 6 C0.34 6 -0.32 6 -1 6 C-0.67 7.65 -0.34 9.3 0 11 C-2.31 9.02 -4.62 7.04 -7 5 C-5.68 4.34 -4.36 3.68 -3 3 C-1.29078411 1.4587688 -1.29078411 1.4587688 0 0 Z " fill="#701EF0" transform="translate(374,577)"/>
<path d="M0 0 C0.33 0.99 0.66 1.98 1 3 C-1 5 -1 5 -3.3125 6.6875 C-6.09724737 9.08367797 -7.77617595 11.41686563 -9.69140625 14.51171875 C-11.32922924 16.37443684 -12.59184458 16.61815718 -15 17 C-10.60502098 10.67467725 -5.54949524 5.32751543 0 0 Z " fill="#7132DC" transform="translate(1062,1064)"/>
<path d="M0 0 C0.66 0.66 1.32 1.32 2 2 C0.71520959 3.50589388 -0.57804082 5.00457375 -1.875 6.5 C-2.95394531 7.75296875 -2.95394531 7.75296875 -4.0546875 9.03125 C-4.69664062 9.6809375 -5.33859375 10.330625 -6 11 C-6.66 11 -7.32 11 -8 11 C-8.33 11.66 -8.66 12.32 -9 13 C-8.58286812 8.1334614 -6.54534674 6.20769467 -3 3 C-2.401875 2.401875 -1.80375 1.80375 -1.1875 1.1875 C-0.795625 0.795625 -0.40375 0.40375 0 0 Z " fill="#F3E4FC" transform="translate(368,1017)"/>
<path d="M0 0 C2.31 0.66 4.62 1.32 7 2 C7.12375 2.804375 7.2475 3.60875 7.375 4.4375 C7.684375 5.7059375 7.684375 5.7059375 8 7 C8.66 7.33 9.32 7.66 10 8 C9.67 9.32 9.34 10.64 9 12 C7.68 12.33 6.36 12.66 5 13 C5.66 11.68 6.32 10.36 7 9 C6.4946875 8.43410156 5.989375 7.86820313 5.46875 7.28515625 C4.8190625 6.55167969 4.169375 5.81820312 3.5 5.0625 C2.8503125 4.33160156 2.200625 3.60070312 1.53125 2.84765625 C0 1 0 1 0 0 Z " fill="#7330DD" transform="translate(1296,792)"/>
<path d="M0 0 C-1.5830577 4.2742558 -4.50568404 6.26531794 -8 9 C-8.36190476 3.57142857 -8.36190476 3.57142857 -6.8125 1.125 C-4.43963721 -0.34781139 -2.74086056 -0.22223194 0 0 Z " fill="#F8ECF6" transform="translate(408,976)"/>
<path d="M0 0 C2.5 2.3125 2.5 2.3125 5 5 C5 8.96130371 3.65122875 9.82914401 1 12.6875 C0.2575 13.49574219 -0.485 14.30398438 -1.25 15.13671875 C-2.11625 16.05904297 -2.11625 16.05904297 -3 17 C-3.33 16.01 -3.66 15.02 -4 14 C-3.175 13.319375 -2.35 12.63875 -1.5 11.9375 C1.36068704 9.15521993 1.36068704 9.15521993 1.3125 5.1875 C1.209375 4.135625 1.10625 3.08375 1 2 C0.34 1.67 -0.32 1.34 -1 1 C-0.67 0.67 -0.34 0.34 0 0 Z " fill="#F2DFFB" transform="translate(1298,795)"/>
<path d="M0 0 C0.33 2.31 0.66 4.62 1 7 C1.99 7 2.98 7 4 7 C3.67 8.32 3.34 9.64 3 11 C1.66070495 9.71451591 0.32871357 8.42141845 -1 7.125 C-2.11375 6.04605469 -2.11375 6.04605469 -3.25 4.9453125 C-5 3 -5 3 -5 1 C-2 0 -2 0 0 0 Z " fill="#6F29E2" transform="translate(476,692)"/>
<path d="M0 0 C1.17539996 0.92652701 2.34010577 1.86663387 3.5 2.8125 C4.1496875 3.33457031 4.799375 3.85664062 5.46875 4.39453125 C7 6 7 6 7 9 C6.01 9.66 5.02 10.32 4 11 C4 10.34 4 9.68 4 9 C3.34 9 2.68 9 2 9 C2 7.68 2 6.36 2 5 C1.01 5.495 1.01 5.495 0 6 C-0.38218767 4.34385343 -0.71395102 2.67542976 -1 1 C-0.67 0.67 -0.34 0.34 0 0 Z " fill="#F0E1F8" transform="translate(404,622)"/>
<path d="M0 0 C0.77772405 2.33317216 1.42415568 4.61435923 2 7 C0 8 0 8 -2.5625 8.4375 C-3.7690625 8.7159375 -3.7690625 8.7159375 -5 9 C-5.33 9.66 -5.66 10.32 -6 11 C-6.99 10.67 -7.98 10.34 -9 10 C-6.03 6.7 -3.06 3.4 0 0 Z " fill="#712EE2" transform="translate(901,840)"/>
<path d="M0 0 C1.65 0 3.3 0 5 0 C5.33 1.65 5.66 3.3 6 5 C6.66 5 7.32 5 8 5 C8 5.66 8 6.32 8 7 C8.66 7 9.32 7 10 7 C10.33 7.66 10.66 8.32 11 9 C11.99 9.66 12.98 10.32 14 11 C13.67 11.99 13.34 12.98 13 14 C8.4103663 9.51286432 4.01145421 5.01431776 0 0 Z " fill="#7031D9" transform="translate(728,575)"/>
<path d="M0 0 C3.84411747 1.56612193 6.15950209 4.02094121 9 7 C9.928125 7.928125 10.85625 8.85625 11.8125 9.8125 C12.534375 10.534375 13.25625 11.25625 14 12 C13.67 12.99 13.34 13.98 13 15 C8.08198915 10.30165217 3.77661644 5.66492467 0 0 Z " fill="#7237DA" transform="translate(691,534)"/>
<path d="M0 0 C1.65 0.99 3.3 1.98 5 3 C4.25 4.9375 4.25 4.9375 3 7 C0.875 7.75 0.875 7.75 -1 8 C-1 7.34 -1 6.68 -1 6 C-1.66 6 -2.32 6 -3 6 C-2.42655063 3.13275314 -2.1385485 2.1385485 0 0 Z M1 3 C2 5 2 5 2 5 Z " fill="#7529F0" transform="translate(1091,1032)"/>
<path d="M0 0 C0.33 0.99 0.66 1.98 1 3 C-3.33333333 7.33333333 -7.66666667 11.66666667 -12 16 C-12.66 15.67 -13.32 15.34 -14 15 C-12.04808712 12.82722848 -10.08902463 10.66177539 -8.125 8.5 C-7.56941406 7.87996094 -7.01382812 7.25992188 -6.44140625 6.62109375 C-5.90644531 6.03457031 -5.37148437 5.44804688 -4.8203125 4.84375 C-4.32805176 4.29912109 -3.83579102 3.75449219 -3.32861328 3.19335938 C-2 2 -2 2 0 2 C0 1.34 0 0.68 0 0 Z " fill="#7335E4" transform="translate(1106,1016)"/>
<path d="M0 0 C1.31223496 3.93670488 0.24296256 6.12488144 -1 10 C-2.32 10.33 -3.64 10.66 -5 11 C-5 10.34 -5 9.68 -5 9 C-5.66 8.67 -6.32 8.34 -7 8 C-4.69 5.36 -2.38 2.72 0 0 Z " fill="#792FEB" transform="translate(753,1000)"/>
<path d="M0 0 C0.33 0.66 0.66 1.32 1 2 C1.639375 2.103125 2.27875 2.20625 2.9375 2.3125 C3.618125 2.539375 4.29875 2.76625 5 3 C6.25 5.5625 6.25 5.5625 7 8 C5.00045254 8.04254356 2.99958364 8.04080783 1 8 C0 7 0 7 -0.0625 3.4375 C-0.041875 2.303125 -0.02125 1.16875 0 0 Z " fill="#FCFCEE" transform="translate(1224,720)"/>
<path d="M0 0 C3.9101173 1.48314794 4.94331612 3.46250372 7 7 C7.86625 7.86625 8.7325 8.7325 9.625 9.625 C12 12 12 12 13 15 C11 15 11 15 9.44921875 13.4609375 C8.86785156 12.77257812 8.28648437 12.08421875 7.6875 11.375 C7.07132813 10.65054688 6.45515625 9.92609375 5.8203125 9.1796875 C5.21960938 8.46039062 4.61890625 7.74109375 4 7 C3.48179687 6.38382813 2.96359375 5.76765625 2.4296875 5.1328125 C1.28041165 3.76024877 0.1392439 2.3809017 -1 1 C-0.67 0.67 -0.34 0.34 0 0 Z " fill="#7436DE" transform="translate(673,513)"/>
<path d="M0 0 C0.33 1.32 0.66 2.64 1 4 C0.154375 4.495 -0.69125 4.99 -1.5625 5.5 C-5.78736954 8.28296896 -8.81621924 12.11917848 -12 16 C-12.66 15.67 -13.32 15.34 -14 15 C-9.38 10.05 -4.76 5.1 0 0 Z " fill="#7939DE" transform="translate(1223,889)"/>
<path d="M0 0 C-2.31 2.64 -4.62 5.28 -7 8 C-7.66 7.34 -8.32 6.68 -9 6 C-8.9375 4.0625 -8.9375 4.0625 -8 2 C-3.744 -1.248 -3.744 -1.248 0 0 Z " fill="#EFE1F7" transform="translate(1289,818)"/>
<path d="M0 0 C1.65 1.65 3.3 3.3 5 5 C4.01 5.33 3.02 5.66 2 6 C1.67 11.94 1.34 17.88 1 24 C0.67 24 0.34 24 0 24 C0 16.08 0 8.16 0 0 Z " fill="#F6DCFD" transform="translate(659,500)"/>
<path d="M0 0 C0.33 0 0.66 0 1 0 C1.3125 2.1875 1.3125 2.1875 1 5 C-1.25 7.875 -1.25 7.875 -4 10 C-6.171875 9.6328125 -6.171875 9.6328125 -8 9 C-6.69088122 7.49704815 -5.37761608 5.99770689 -4.0625 4.5 C-3.33160156 3.6646875 -2.60070312 2.829375 -1.84765625 1.96875 C-1.23792969 1.3190625 -0.62820313 0.669375 0 0 Z " fill="#702BE6" transform="translate(687,1072)"/>
<path d="M0 0 C0 2.83967231 -0.40267181 5.23735711 -1 8 C-1.59296875 8.10183594 -2.1859375 8.20367188 -2.796875 8.30859375 C-5.36184111 9.11355652 -6.42743483 10.11566902 -8.25 12.0625 C-8.77078125 12.61035156 -9.2915625 13.15820312 -9.828125 13.72265625 C-10.21484375 14.14417969 -10.6015625 14.56570313 -11 15 C-11.66 14.67 -12.32 14.34 -13 14 C-12.56429688 13.57589844 -12.12859375 13.15179687 -11.6796875 12.71484375 C-7.54991517 8.64764373 -3.71958871 4.44536212 0 0 Z " fill="#7637DE" transform="translate(498,879)"/>
<path d="M0 0 C0.66 0.33 1.32 0.66 2 1 C2 1.66 2 2.32 2 3 C1.34 3 0.68 3 0 3 C-0.33 3.99 -0.66 4.98 -1 6 C-3.5625 7.1875 -3.5625 7.1875 -6 8 C-6 4.45176068 -5.32265612 3.58072903 -3 1 C-2.01 0.67 -1.02 0.34 0 0 Z " fill="#6E25ED" transform="translate(1246,866)"/>
<path d="M0 0 C0.66 0.33 1.32 0.66 2 1 C2 2.32 2 3.64 2 5 C2.99 5 3.98 5 5 5 C5.28875 5.7425 5.5775 6.485 5.875 7.25 C6.82368263 9.56900199 7.86559779 11.76932676 9 14 C0.63371151 6.94975689 0.63371151 6.94975689 -2 4 C-2 3.34 -2 2.68 -2 2 C-1.34 2 -0.68 2 0 2 C0 1.34 0 0.68 0 0 Z " fill="#6F29E5" transform="translate(462,679)"/>
<path d="M0 0 C0 3 0 3 -1.875 4.9375 C-2.57625 5.618125 -3.2775 6.29875 -4 7 C-4.28875 7.70125 -4.5775 8.4025 -4.875 9.125 C-6.58141089 11.96901815 -8.90675716 12.19306709 -12 13 C-11.61328125 12.55269531 -11.2265625 12.10539063 -10.828125 11.64453125 C-8.41308192 8.84092925 -6.03122244 6.03989534 -3.75 3.125 C-2 1 -2 1 0 0 Z " fill="#7637DD" transform="translate(1159,959)"/>
<path d="M0 0 C4.46334277 1.36379918 6.27482438 3.27559332 9 7 C9.5775 7.495 10.155 7.99 10.75 8.5 C12.53030442 10.6363653 12.21811874 12.30986889 12 15 C11.57847656 14.42378906 11.15695312 13.84757813 10.72265625 13.25390625 C8.49499273 10.33925352 6.06267155 7.63796103 3.62109375 4.90234375 C2 3 2 3 0 0 Z " fill="#7532D9" transform="translate(558,788)"/>
<path d="M0 0 C3.98069267 2.87494471 6.43571997 5.82117329 9 10 C6 10 6 10 3 8 C2.01 7.67 1.02 7.34 0 7 C0.2784375 6.1028125 0.2784375 6.1028125 0.5625 5.1875 C1.22093687 2.83591238 1.22093687 2.83591238 0 0 Z " fill="#F5E7FC" transform="translate(866,725)"/>
<path d="M0 0 C-0.6875 2.4375 -0.6875 2.4375 -2 5 C-4.5625 5.6875 -4.5625 5.6875 -7 6 C-7.33 6.66 -7.66 7.32 -8 8 C-8.33 7.01 -8.66 6.02 -9 5 C-4.5 0 -4.5 0 0 0 Z " fill="#7620EF" transform="translate(717,547)"/>
<path d="M0 0 C4.32239956 3.34003602 7.17477391 6.32751069 10 11 C6.53795452 11 6.21603941 10.6476574 3.875 8.3125 C1.34521595 5.67626464 0.22036942 3.74628012 0 0 Z " fill="#F0DCFC" transform="translate(1046,522)"/>
<path d="M0 0 C1.32 0.33 2.64 0.66 4 1 C2.87895467 2.31587941 1.75303035 3.62760353 0.625 4.9375 C-0.00148438 5.66839844 -0.62796875 6.39929687 -1.2734375 7.15234375 C-3 9 -3 9 -5 10 C-4.75 7.625 -4.75 7.625 -4 5 C-1.9375 3.6875 -1.9375 3.6875 0 3 C0 2.01 0 1.02 0 0 Z " fill="#EFDCFD" transform="translate(1085,1034)"/>
<path d="M0 0 C2.97 0.495 2.97 0.495 6 1 C6 1.99 6 2.98 6 4 C4.68 4.33 3.36 4.66 2 5 C1.67 6.32 1.34 7.64 1 9 C-0.4783226 6.04335481 -0.06032783 3.25770263 0 0 Z " fill="#FBFBF2" transform="translate(1272,824)"/>
<path d="M0 0 C1.13199353 0.9080162 2.25532363 1.82683826 3.375 2.75 C4.00148438 3.26046875 4.62796875 3.7709375 5.2734375 4.296875 C7.08312318 6.08199481 8.00117455 7.67949644 9 10 C5.54537888 9.74410214 4.72618453 8.71373837 2.25 6.125 C0 3 0 3 0 0 Z " fill="#F1DDFB" transform="translate(544,774)"/>
<path d="M0 0 C2.93200474 2.85276137 5.64315404 5.65079784 8 9 C7.01 9.33 6.02 9.66 5 10 C4.34 9.01 3.68 8.02 3 7 C2.01 6.67 1.02 6.34 0 6 C-1 3 -1 3 0 0 Z " fill="#F1E2FB" transform="translate(1225,716)"/>
<path d="M0 0 C0 3 0 3 -1 5 C0.32 6.65 1.64 8.3 3 10 C2.34 10.66 1.68 11.32 1 12 C-0.14842923 10.71064081 -1.29366227 9.41843421 -2.4375 8.125 C-3.07558594 7.40570312 -3.71367187 6.68640625 -4.37109375 5.9453125 C-6 4 -6 4 -7 2 C-5.824375 1.7834375 -5.824375 1.7834375 -4.625 1.5625 C-2.03578982 1.12201075 -2.03578982 1.12201075 0 0 Z " fill="#722EE4" transform="translate(350,553)"/>
<path d="M0 0 C4.29238623 1.65091778 6.8793915 4.73754566 10 8 C9.67 8.66 9.34 9.32 9 10 C5.31003189 7.70401984 2.26324354 5.77207256 0 2 C0 1.34 0 0.68 0 0 Z " fill="#E7D1FC" transform="translate(889,751)"/>
<path d="M0 0 C0.68707555 2.49064888 1 4.37886292 1 7 C1.99 7 2.98 7 4 7 C4.66 8.98 5.32 10.96 6 13 C2.18063472 11.44396229 -0.26044438 9.04395069 -3 6 C-3 5.34 -3 4.68 -3 4 C-2.34 3.67 -1.68 3.34 -1 3 C-0.67 2.01 -0.34 1.02 0 0 Z " fill="#7633EB" transform="translate(1255,740)"/>
<path d="M0 0 C2.64752004 2.57784846 4.94432065 4.91648098 7 8 C6.01 8.33 5.02 8.66 4 9 C1.3125 7.5625 1.3125 7.5625 -1 6 C-0.67 4.02 -0.34 2.04 0 0 Z " fill="#F1E3FB" transform="translate(801,654)"/>
<path d="M0 0 C1.32 0.33 2.64 0.66 4 1 C4 1.66 4 2.32 4 3 C4.556875 3.20625 5.11375 3.4125 5.6875 3.625 C8.92501302 5.55000774 10.68231141 8.03850902 13 11 C12.67 11.66 12.34 12.32 12 13 C9.99698146 11.0238076 7.99750133 9.04425526 6 7.0625 C5.42765625 6.49853516 4.8553125 5.93457031 4.265625 5.35351562 C2.82474495 3.92121224 1.41012857 2.46258871 0 1 C0 0.67 0 0.34 0 0 Z " fill="#7636DE" transform="translate(1146,630)"/>
<path d="M0 0 C2.475 0.495 2.475 0.495 5 1 C5.66 3.97 6.32 6.94 7 10 C1.53125 5.703125 1.53125 5.703125 0 4 C0 2.68 0 1.36 0 0 Z " fill="#702EEA" transform="translate(306,512)"/>
<path d="M0 0 C0.33 1.32 0.66 2.64 1 4 C0.13375 4.309375 0.13375 4.309375 -0.75 4.625 C-3.2798749 5.9499229 -3.2798749 5.9499229 -5 9.0625 C-7 12 -7 12 -9.125 12.68359375 C-9.74375 12.78800781 -10.3625 12.89242188 -11 13 C-7.61227103 8.30840284 -4.21814817 3.9700218 0 0 Z " fill="#7034E3" transform="translate(347,1043)"/>
<path d="M0 0 C0.99 0.33 1.98 0.66 3 1 C2.67 1.99 2.34 2.98 2 4 C-0.0625 4.6875 -0.0625 4.6875 -2 5 C-2 5.66 -2 6.32 -2 7 C-2.66 7 -3.32 7 -4 7 C-4 7.66 -4 8.32 -4 9 C-4.66 8.67 -5.32 8.34 -6 8 C-4.26440562 4.942048 -2.61527381 2.36620011 0 0 Z " fill="#6F25E7" transform="translate(848,898)"/>
<path d="M0 0 C0.66 0.33 1.32 0.66 2 1 C1.75 2.875 1.75 2.875 1 5 C-1.5164751 6.64872507 -4.07459296 7.37312706 -7 8 C-7 7.34 -7 6.68 -7 6 C-5.46875 4.4921875 -5.46875 4.4921875 -3.5 2.875 C-2.8503125 2.33617187 -2.200625 1.79734375 -1.53125 1.2421875 C-1.0259375 0.83226562 -0.520625 0.42234375 0 0 Z " fill="#7334DF" transform="translate(549,824)"/>
<path d="M0 0 C1.65 0 3.3 0 5 0 C4.06725891 1.12894876 3.12859878 2.25300876 2.1875 3.375 C1.66542969 4.00148438 1.14335938 4.62796875 0.60546875 5.2734375 C-1 7 -1 7 -4 9 C-3.49396008 6.83125748 -3.00016187 5.00032373 -2 3 C-1.34 3 -0.68 3 0 3 C0 2.01 0 1.02 0 0 Z " fill="#F6E6FC" transform="translate(555,812)"/>
<path d="M0 0 C1.14926266 0.95421808 2.29430541 1.91352045 3.4375 2.875 C4.07558594 3.40867187 4.71367188 3.94234375 5.37109375 4.4921875 C7 6 7 6 8 8 C5.69 7.67 3.38 7.34 1 7 C0.31292445 4.50935112 0 2.62113708 0 0 Z " fill="#F7EBF6" transform="translate(1288,785)"/>
<path d="M0 0 C0.598125 0.20625 1.19625 0.4125 1.8125 0.625 C0.8225 1.945 -0.1675 3.265 -1.1875 4.625 C-0.5275 5.945 0.1325 7.265 0.8125 8.625 C-3.9875 6.16346154 -3.9875 6.16346154 -5 3.4375 C-5.061875 2.839375 -5.12375 2.24125 -5.1875 1.625 C-2.1875 -0.375 -2.1875 -0.375 0 0 Z " fill="#7023E4" transform="translate(341.1875,544.375)"/>
<path d="M0 0 C0.66 0.33 1.32 0.66 2 1 C1.9175 1.7425 1.835 2.485 1.75 3.25 C2.07105184 6.78157027 3.35265617 7.76630364 6 10 C5.67 10.66 5.34 11.32 5 12 C3.66070495 10.71451591 2.32871357 9.42141845 1 8.125 C-0.11375 7.04605469 -0.11375 7.04605469 -1.25 5.9453125 C-3 4 -3 4 -3 2 C-2.01 2 -1.02 2 0 2 C0 1.34 0 0.68 0 0 Z " fill="#7333DF" transform="translate(1043,512)"/>
<path d="M0 0 C1.32 0 2.64 0 4 0 C3.25 4.75 3.25 4.75 1 7 C0.34 6.67 -0.32 6.34 -1 6 C-1.042721 4.33388095 -1.04063832 2.66617115 -1 1 C-0.67 0.67 -0.34 0.34 0 0 Z " fill="#FCFDEE" transform="translate(713,1032)"/>
<path d="M0 0 C0.33 0.66 0.66 1.32 1 2 C-0.10281127 3.27200971 -1.20730769 4.54255853 -2.3125 5.8125 C-2.92738281 6.52019531 -3.54226563 7.22789062 -4.17578125 7.95703125 C-5.73334335 9.70136739 -7.32658875 11.36778041 -9 13 C-9.66 12.67 -10.32 12.34 -11 12 C-7.37 8.04 -3.74 4.08 0 0 Z " fill="#7539D6" transform="translate(1197,917)"/>
<path d="M0 0 C0.33 1.32 0.66 2.64 1 4 C0.01 4.33 -0.98 4.66 -2 5 C-2.73323796 7.01508358 -2.73323796 7.01508358 -3 9 C-4.32 8.34 -5.64 7.68 -7 7 C-4.69 4.69 -2.38 2.38 0 0 Z " fill="#6D2BE4" transform="translate(527,848)"/>
<path d="M0 0 C1.15224028 0.92961422 2.29659176 1.8690125 3.4375 2.8125 C4.07558594 3.33457031 4.71367188 3.85664062 5.37109375 4.39453125 C7 6 7 6 8 9 C4.74488211 8.43877278 3.00159929 7.66879905 1 5 C0.3125 2.3125 0.3125 2.3125 0 0 Z " fill="#ECD6FC" transform="translate(522,750)"/>
<path d="M0 0 C3 0 3 0 5.0625 1.9375 C5.701875 2.618125 6.34125 3.29875 7 4 C7.66 4.33 8.32 4.66 9 5 C9 6.65 9 8.3 9 10 C5.06451569 6.93906776 2.31883213 4.50884026 0 0 Z " fill="#6E2DE1" transform="translate(1191,678)"/>
<path d="M0 0 C1.9375 0.375 1.9375 0.375 4 1 C4.33 1.66 4.66 2.32 5 3 C5.33 2.34 5.66 1.68 6 1 C6.99 1.33 7.98 1.66 9 2 C9 2.66 9 3.32 9 4 C8.34 4 7.68 4 7 4 C6.67 5.32 6.34 6.64 6 8 C4.9970458 6.85675161 3.99770973 5.71032809 3 4.5625 C2.443125 3.92441406 1.88625 3.28632812 1.3125 2.62890625 C0 1 0 1 0 0 Z " fill="#7733E7" transform="translate(359,572)"/>
<path d="M0 0 C2.93200474 2.85276137 5.64315404 5.65079784 8 9 C4.93795671 8.66896829 3.39949096 8.39949096 1.1875 6.1875 C0 4 0 4 0 0 Z " fill="#F3E4F9" transform="translate(1072,550)"/>
<path d="M0 0 C1.2065625 0.0309375 1.2065625 0.0309375 2.4375 0.0625 C-1.1875 5.8125 -1.1875 5.8125 -4.5625 8.0625 C-3.54737544 0.08652135 -3.54737544 0.08652135 0 0 Z " fill="#F1E6FA" transform="translate(420.5625,959.9375)"/>
<path d="M0 0 C0.99 0.33 1.98 0.66 3 1 C1.38405168 3.04119788 -0.2856382 5.04072937 -2 7 C-2.66 7 -3.32 7 -4 7 C-4.66 8.32 -5.32 9.64 -6 11 C-6.33 10.01 -6.66 9.02 -7 8 C-4.6875 4.8125 -4.6875 4.8125 -2 2 C-1.34 2 -0.68 2 0 2 C0 1.34 0 0.68 0 0 Z " fill="#F0DCFC" transform="translate(1184,928)"/>
<path d="M0 0 C1.98 0 3.96 0 6 0 C4.02 2.31 2.04 4.62 0 7 C-0.66 6.01 -1.32 5.02 -2 4 C-1.34 2.68 -0.68 1.36 0 0 Z " fill="#F2E3FA" transform="translate(829,912)"/>
<path d="M0 0 C0.33 0.99 0.66 1.98 1 3 C-1.478327 6.7174905 -4.44299727 9.33224795 -8 12 C-8.66 11.67 -9.32 11.34 -10 11 C-6.7 7.37 -3.4 3.74 0 0 Z " fill="#7738DA" transform="translate(484,894)"/>
<path d="M0 0 C2.109375 0.42578125 2.109375 0.42578125 4 1 C3.04882866 2.1725131 2.08882991 3.33787015 1.125 4.5 C0.59132813 5.1496875 0.05765625 5.799375 -0.4921875 6.46875 C-0.98976563 6.9740625 -1.48734375 7.479375 -2 8 C-2.66 8 -3.32 8 -4 8 C-4.33 8.66 -4.66 9.32 -5 10 C-5.33 9.01 -5.66 8.02 -6 7 C-5.01 7 -4.02 7 -3 7 C-3 5.68 -3 4.36 -3 3 C-1.75 1.1875 -1.75 1.1875 0 0 Z " fill="#F1DDFC" transform="translate(1277,826)"/>
<path d="M0 0 C0.33 0.99 0.66 1.98 1 3 C-0.14453125 4.82421875 -0.14453125 4.82421875 -1.8125 6.6875 C-2.35519531 7.31011719 -2.89789062 7.93273437 -3.45703125 8.57421875 C-5 10 -5 10 -7 10 C-7.33 10.66 -7.66 11.32 -8 12 C-7.62403791 9.21788056 -7.32681541 7.4120716 -5.5625 5.1875 C-4 4 -4 4 -2 4 C-2 3.34 -2 2.68 -2 2 C-1.34 2 -0.68 2 0 2 C0 1.34 0 0.68 0 0 Z " fill="#F5E0FC" transform="translate(568,800)"/>
<path d="M0 0 C3.38278048 1.12759349 4.41885899 2.24524175 6.75 4.875 C7.38421875 5.57367187 8.0184375 6.27234375 8.671875 6.9921875 C9.11015625 7.65476562 9.5484375 8.31734375 10 9 C9.67 9.99 9.34 10.98 9 12 C7.49405319 10.38050958 5.99539332 8.75424026 4.5 7.125 C3.6646875 6.22007812 2.829375 5.31515625 1.96875 4.3828125 C0 2 0 2 0 0 Z " fill="#7232E3" transform="translate(1058,533)"/>
<path d="M0 0 C0.33 0.99 0.66 1.98 1 3 C1.66 3 2.32 3 3 3 C3.33 2.34 3.66 1.68 4 1 C4.33 1.99 4.66 2.98 5 4 C3.59554165 6.2636564 1.8032087 8.0208685 0 10 C-1.231394 6.30581799 -0.64432764 3.7943739 0 0 Z " fill="#F1E1FA" transform="translate(1049,1069)"/>
<path d="M0 0 C1.65 0 3.3 0 5 0 C3.50902342 3.7952131 1.24299151 5.61042731 -2 8 C-1.34 5.36 -0.68 2.72 0 0 Z " fill="#F7E5FA" transform="translate(1115,1000)"/>
<path d="M0 0 C0.99 0 1.98 0 3 0 C1.98823563 3.40320742 1.35156418 4.75725331 -1.625 6.8125 C-2.40875 7.204375 -3.1925 7.59625 -4 8 C-4 6.68 -4 5.36 -4 4 C-3.34 4 -2.68 4 -2 4 C-1.34 2.68 -0.68 1.36 0 0 Z " fill="#F8E8FC" transform="translate(412,968)"/>
<path d="M0 0 C1.32 0.66 2.64 1.32 4 2 C2.75023244 5.65316671 2.32901247 6.78065836 -1 9 C-1 5.72724974 -0.70074844 3.153368 0 0 Z " fill="#F6EDFC" transform="translate(1163,946)"/>
<path d="M0 0 C0.99 0.33 1.98 0.66 3 1 C-4.11389522 9.81548975 -4.11389522 9.81548975 -9 11 C-8.60167969 10.54109375 -8.20335937 10.0821875 -7.79296875 9.609375 C-5.08857938 6.47728415 -2.42008229 3.36122541 0 0 Z " fill="#7539D6" transform="translate(825,922)"/>
<path d="M0 0 C0.66 0.66 1.32 1.32 2 2 C0.02 4.31 -1.96 6.62 -4 9 C-4.33 7.68 -4.66 6.36 -5 5 C-3.5399926 2.56665433 -2.54764436 1.27382218 0 0 Z " fill="#EDE0FA" transform="translate(473,903)"/>
<path d="M0 0 C1.42944945 2.35438733 2.08661261 3.48032433 1.625 6.25 C1.41875 6.8275 1.2125 7.405 1 8 C0.01 7.67 -0.98 7.34 -2 7 C-2 5.02 -2 3.04 -2 1 C-1.34 0.67 -0.68 0.34 0 0 Z " fill="#F8FAF3" transform="translate(1298,797)"/>
<path d="M0 0 C2 1.375 2 1.375 4 3 C4 3.66 4 4.32 4 5 C4.99 5.33 5.98 5.66 7 6 C7.33 6.99 7.66 7.98 8 9 C4.74488211 8.43877278 3.00159929 7.66879905 1 5 C0.3125 2.3125 0.3125 2.3125 0 0 Z " fill="#EAD3FA" transform="translate(560,791)"/>
<path d="M0 0 C2.64 0 5.28 0 8 0 C7.67 2.31 7.34 4.62 7 7 C5.83040013 6.02433888 4.66438823 5.044375 3.5 4.0625 C2.8503125 3.51722656 2.200625 2.97195313 1.53125 2.41015625 C1.0259375 1.94480469 0.520625 1.47945312 0 1 C0 0.67 0 0.34 0 0 Z " fill="#7C35E3" transform="translate(504,730)"/>
<path d="M0 0 C2.89932357 2.39509338 3.50168276 4.31245243 4 8 C3.01 8.33 2.02 8.66 1 9 C-0.625 7.3125 -0.625 7.3125 -2 5 C-1.1875 2.25 -1.1875 2.25 0 0 Z " fill="#F3ECF6" transform="translate(386,602)"/>
<path d="M0 0 C0.12375 0.721875 0.2475 1.44375 0.375 2.1875 C0.9904931 4.95721894 1.88444374 7.3970354 3 10 C-0.63094642 7.35039045 -2.89851796 4.98175544 -5 1 C-2 0 -2 0 0 0 Z " fill="#7532E0" transform="translate(1054,523)"/>
<path d="M0 0 C0.33 0.99 0.66 1.98 1 3 C-2 6 -5 9 -8 12 C-8.66 11.67 -9.32 11.34 -10 11 C-6.7 7.37 -3.4 3.74 0 0 Z " fill="#7B3ADD" transform="translate(675,1085)"/>
<path d="M0 0 C0.99 0.66 1.98 1.32 3 2 C0.03 4.475 0.03 4.475 -3 7 C-4.125 3.25 -4.125 3.25 -3 1 C-2.01 0.67 -1.02 0.34 0 0 Z " fill="#F6E7FB" transform="translate(380,1003)"/>
<path d="M0 0 C0.66 0.66 1.32 1.32 2 2 C0.35830472 4.02054804 -1.30911778 6.02043058 -3 8 C-3.33 8 -3.66 8 -4 8 C-4 5.69 -4 3.38 -4 1 C-2.125 0.375 -2.125 0.375 0 0 Z " fill="#F3E7F9" transform="translate(532,839)"/>
<path d="M0 0 C1.32 0 2.64 0 4 0 C3.67 1.32 3.34 2.64 3 4 C1.35 4.33 -0.3 4.66 -2 5 C-1.125 1.125 -1.125 1.125 0 0 Z " fill="#FCFCF0" transform="translate(906,824)"/>
<path d="M0 0 C0.99 0 1.98 0 3 0 C1.4169423 4.2742558 -1.50568404 6.26531794 -5 9 C-4.6875 7.0625 -4.6875 7.0625 -4 5 C-3.01 4.67 -2.02 4.34 -1 4 C-0.26676204 1.98491642 -0.26676204 1.98491642 0 0 Z " fill="#F6E3FD" transform="translate(925,810)"/>
<path d="M0 0 C1.12894876 0.93274109 2.25300876 1.87140122 3.375 2.8125 C4.00148438 3.33457031 4.62796875 3.85664062 5.2734375 4.39453125 C7 6 7 6 9 9 C8.01 9.495 8.01 9.495 7 10 C7 9.34 7 8.68 7 8 C6.401875 7.731875 5.80375 7.46375 5.1875 7.1875 C2.98180967 5.99012525 1.56416813 4.95521016 0 3 C0 2.01 0 1.02 0 0 Z " fill="#F7E4FC" transform="translate(432,653)"/>
<path d="M0 0 C2.3125 0.125 2.3125 0.125 5 1 C6.875 3.9375 6.875 3.9375 8 7 C7.67 7.66 7.34 8.32 7 9 C5.82737096 7.88121617 4.66204862 6.75476949 3.5 5.625 C2.8503125 4.99851562 2.200625 4.37203125 1.53125 3.7265625 C0 2 0 2 0 0 Z " fill="#7333DF" transform="translate(1159,643)"/>
<path d="M0 0 C0.99 0 1.98 0 3 0 C3 0.99 3 1.98 3 3 C3.66 3 4.32 3 5 3 C6.7143618 4.95927063 8.38405168 6.95880212 10 9 C9.67 9.66 9.34 10.32 9 11 C7.49403892 9.54782324 5.99537896 8.08807139 4.5 6.625 C3.6646875 5.81289063 2.829375 5.00078125 1.96875 4.1640625 C0 2 0 2 0 0 Z " fill="#6D34DC" transform="translate(769,618)"/>
<path d="M0 0 C0.66 0.66 1.32 1.32 2 2 C0.68 3.65 -0.64 5.3 -2 7 C-3.32 6.67 -4.64 6.34 -6 6 C-4.02 4.02 -2.04 2.04 0 0 Z " fill="#6F2CE3" transform="translate(1036,1092)"/>
<path d="M0 0 C1.2065625 0.0309375 1.2065625 0.0309375 2.4375 0.0625 C2.1075 1.0525 1.7775 2.0425 1.4375 3.0625 C-1.625 4.25 -1.625 4.25 -4.5625 5.0625 C-3.43829114 0.08386076 -3.43829114 0.08386076 0 0 Z " fill="#FCFEEF" transform="translate(364.5625,1015.9375)"/>
<path d="M0 0 C0.99 0.33 1.98 0.66 3 1 C1.02 3.31 -0.96 5.62 -3 8 C-3.33 6.68 -3.66 5.36 -4 4 C-2.0625 1.75 -2.0625 1.75 0 0 Z " fill="#F0DBFD" transform="translate(1132,984)"/>
<path d="M0 0 C0.33 0.99 0.66 1.98 1 3 C-1.64 5.31 -4.28 7.62 -7 10 C-7.66 9.67 -8.32 9.34 -9 9 C-6.03 6.03 -3.06 3.06 0 0 Z " fill="#6E2FD3" transform="translate(1145,974)"/>
<path d="M0 0 C0.33 0.99 0.66 1.98 1 3 C-0.40445835 5.2636564 -2.1967913 7.0208685 -4 9 C-4.99 8.67 -5.98 8.34 -7 8 C-4.69 5.36 -2.38 2.72 0 0 Z " fill="#6E2EDA" transform="translate(439,943)"/>
<path d="M0 0 C0.66 0.66 1.32 1.32 2 2 C2.99 1.67 3.98 1.34 5 1 C4.34 2.32 3.68 3.64 3 5 C0.69 5 -1.62 5 -4 5 C-2.68 3.35 -1.36 1.7 0 0 Z " fill="#6E26E8" transform="translate(891,851)"/>
<path d="M0 0 C0.99 0.33 1.98 0.66 3 1 C-0.465 3.97 -0.465 3.97 -4 7 C-4 5.68 -4 4.36 -4 3 C-2.1875 1.1875 -2.1875 1.1875 0 0 Z " fill="#F6E7FC" transform="translate(913,824)"/>
<path d="M0 0 C1.32 1.32 2.64 2.64 4 4 C1.29120665 5.35439668 -1.00933268 5.06501451 -4 5 C-4 4.01 -4 3.02 -4 2 C-3.01 2 -2.02 2 -1 2 C-0.67 1.34 -0.34 0.68 0 0 Z " fill="#F4EFF7" transform="translate(1268,763)"/>
<path d="M0 0 C3.36179774 1.44077046 5.59156268 3.24750021 8 6 C8 6.66 8 7.32 8 8 C8.66 8 9.32 8 10 8 C9.67 8.99 9.34 9.98 9 11 C7.49703315 9.35687553 5.99769719 7.71042916 4.5 6.0625 C3.6646875 5.14597656 2.829375 4.22945312 1.96875 3.28515625 C0 1 0 1 0 0 Z " fill="#773EDB" transform="translate(513,739)"/>
<path d="M0 0 C2.475 0.99 2.475 0.99 5 2 C5 2.99 5 3.98 5 5 C5.99 5.33 6.98 5.66 8 6 C7.67 6.99 7.34 7.98 7 9 C5.83037314 7.69013727 4.66437056 6.3770374 3.5 5.0625 C2.8503125 4.33160156 2.200625 3.60070312 1.53125 2.84765625 C0 1 0 1 0 0 Z " fill="#7738E0" transform="translate(1167,652)"/>
<path d="M0 0 C5.29500913 1.36157378 7.23745533 4.60343955 10 9 C9.67 9.66 9.34 10.32 9 11 C7.49703315 9.35687553 5.99769719 7.71042916 4.5 6.0625 C3.6646875 5.14597656 2.829375 4.22945312 1.96875 3.28515625 C0 1 0 1 0 0 Z " fill="#7433D5" transform="translate(1093,572)"/>
<path d="M0 0 C0.33 0.66 0.66 1.32 1 2 C0.67 2.99 0.34 3.98 0 5 C-0.99 5 -1.98 5 -3 5 C-3.66 6.32 -4.32 7.64 -5 9 C-5.99 9 -6.98 9 -8 9 C-5.36 6.03 -2.72 3.06 0 0 Z " fill="#6F31DC" transform="translate(300,1094)"/>
<path d="M0 0 C0 1.65 0 3.3 0 5 C-0.99 5 -1.98 5 -3 5 C-3 5.66 -3 6.32 -3 7 C-4.32 6.67 -5.64 6.34 -7 6 C-6.02388578 4.99702025 -5.04402202 3.99768827 -4.0625 3 C-3.51722656 2.443125 -2.97195313 1.88625 -2.41015625 1.3125 C-1 0 -1 0 0 0 Z " fill="#7131DE" transform="translate(336,1056)"/>
<path d="M0 0 C0.99 0.33 1.98 0.66 3 1 C3.33 1.99 3.66 2.98 4 4 C2.68 5.32 1.36 6.64 0 8 C-0.38063221 5.6739143 -0.71269945 3.33944736 -1 1 C-0.67 0.67 -0.34 0.34 0 0 Z " fill="#F3E8F6" transform="translate(386,993)"/>
<path d="M0 0 C-0.33 1.65 -0.66 3.3 -1 5 C-4.75 6.125 -4.75 6.125 -7 5 C-2.25 0 -2.25 0 0 0 Z " fill="#6A26E0" transform="translate(768,987)"/>
<path d="M0 0 C1.98 0 3.96 0 6 0 C5.01 0.495 5.01 0.495 4 1 C4 2.65 4 4.3 4 6 C3.34 6 2.68 6 2 6 C2 5.34 2 4.68 2 4 C1.34 4 0.68 4 0 4 C0 2.68 0 1.36 0 0 Z " fill="#F9FBF2" transform="translate(920,808)"/>
<path d="M0 0 C5.875 4.625 5.875 4.625 7 8 C4.24542282 7.62005832 3.17979426 7.1926367 1.25 5.125 C0 3 0 3 0 0 Z " fill="#EAD2FC" transform="translate(1201,690)"/>
<path d="M0 0 C2.31 0.66 4.62 1.32 7 2 C7 2.66 7 3.32 7 4 C6.34 4 5.68 4 5 4 C4.67 4.99 4.34 5.98 4 7 C2 5.1875 2 5.1875 0 3 C0 2.01 0 1.02 0 0 Z " fill="#6D23E6" transform="translate(818,670)"/>
<path d="M0 0 C2.31 1.98 4.62 3.96 7 6 C6.67 6.99 6.34 7.98 6 9 C1.3125 5.484375 1.3125 5.484375 0 4 C0 2.68 0 1.36 0 0 Z " fill="#ECD7FB" transform="translate(1080,559)"/>
<path d="M0 0 C1.1725131 0.95117134 2.33787015 1.91117009 3.5 2.875 C4.47453125 3.67550781 4.47453125 3.67550781 5.46875 4.4921875 C5.9740625 4.98976563 6.479375 5.48734375 7 6 C7 6.66 7 7.32 7 8 C6.01 7.67 5.02 7.34 4 7 C4 6.34 4 5.68 4 5 C2.68 5 1.36 5 0 5 C0 3.35 0 1.7 0 0 Z " fill="#EAD2FB" transform="translate(714,560)"/>
<path d="M0 0 C0.66 0.33 1.32 0.66 2 1 C2 1.66 2 2.32 2 3 C1.01 3.495 1.01 3.495 0 4 C-1.13350534 6.01669827 -1.13350534 6.01669827 -2 8 C-2.99 7.34 -3.98 6.68 -5 6 C-4.34 5.01 -3.68 4.02 -3 3 C-2.34 3 -1.68 3 -1 3 C-0.67 2.01 -0.34 1.02 0 0 Z " fill="#7C38E7" transform="translate(353,1036)"/>
<path d="M0 0 C0.66 0.99 1.32 1.98 2 3 C-0.31 4.98 -2.62 6.96 -5 9 C-5 6 -5 6 -3.625 4.3125 C-2 3 -2 3 0 3 C0 2.01 0 1.02 0 0 Z " fill="#EFDAFB" transform="translate(1096,1023)"/>
<path d="M0 0 C1.98 0 3.96 0 6 0 C5.34 1.32 4.68 2.64 4 4 C3.01 4 2.02 4 1 4 C0.67 4.66 0.34 5.32 0 6 C0 4.02 0 2.04 0 0 Z " fill="#FAFCEF" transform="translate(376,1000)"/>
<path d="M0 0 C0 4.05480631 -1.54870092 5.84832975 -4 9 C-4.99 9 -5.98 9 -7 9 C-5.44499019 5.18315774 -2.96404505 2.80804268 0 0 Z " fill="#6B2CE0" transform="translate(399,987)"/>
<path d="M0 0 C0.99 0.33 1.98 0.66 3 1 C1.02 3.31 -0.96 5.62 -3 8 C-3.33 7.01 -3.66 6.02 -4 5 C-2.0625 2.3125 -2.0625 2.3125 0 0 Z " fill="#EAD8FC" transform="translate(490,884)"/>
<path d="M0 0 C1.24546405 2.49092811 0.7767578 3.41080733 0 6 C-1.98 6.33 -3.96 6.66 -6 7 C-4.02 4.69 -2.04 2.38 0 0 Z " fill="#6D29E1" transform="translate(1238,873)"/>
<path d="M0 0 C1.32 0.33 2.64 0.66 4 1 C3.67 1.66 3.34 2.32 3 3 C2.34 3 1.68 3 1 3 C0.34 4.32 -0.32 5.64 -1 7 C-1.66 6.01 -2.32 5.02 -3 4 C-2.01 2.68 -1.02 1.36 0 0 Z " fill="#F3E3FD" transform="translate(1260,844)"/>
<path d="M0 0 C0 0.66 0 1.32 0 2 C-0.66 2 -1.32 2 -2 2 C-2 2.66 -2 3.32 -2 4 C-2.99 4.33 -3.98 4.66 -5 5 C-5.66 4.34 -6.32 3.68 -7 3 C-4.49955934 -0.00052879 -4.2621484 0 0 0 Z " fill="#FBF9F4" transform="translate(568,800)"/>
<path d="M0 0 C1.35432675 1.31200404 2.68733482 2.64631404 4 4 C4 4.33 4 4.66 4 5 C2.02 5 0.04 5 -2 5 C-2 2 -2 2 0 0 Z " fill="#F0E9FC" transform="translate(1283,779)"/>
<path d="M0 0 C1.65 0 3.3 0 5 0 C4.67 0.99 4.34 1.98 4 3 C3.34 3 2.68 3 2 3 C2.33 4.65 2.66 6.3 3 8 C2.34 7.67 1.68 7.34 1 7 C1 6.01 1 5.02 1 4 C0.34 4 -0.32 4 -1 4 C-0.67 2.68 -0.34 1.36 0 0 Z " fill="#6F19F2" transform="translate(819,664)"/>
<path d="M0 0 C2.9375 0.75 2.9375 0.75 6 2 C6.75 4.0625 6.75 4.0625 7 6 C7.66 6.33 8.32 6.66 9 7 C6 7 6 7 4.39453125 5.46875 C3.87246094 4.8190625 3.35039062 4.169375 2.8125 3.5 C2.28269531 2.8503125 1.75289063 2.200625 1.20703125 1.53125 C0.80871094 1.0259375 0.41039062 0.520625 0 0 Z " fill="#6B28DF" transform="translate(392,608)"/>
<path d="M0 0 C2.875 0.5625 2.875 0.5625 6 2 C7.375 5.625 7.375 5.625 8 9 C5.06799526 6.14723863 2.35684596 3.34920216 0 0 Z " fill="#6D2BD9" transform="translate(384,599)"/>
<path d="M0 0 C4.75 0.875 4.75 0.875 7 2 C7 2.66 7 3.32 7 4 C5.02 4 3.04 4 1 4 C0.67 2.68 0.34 1.36 0 0 Z " fill="#FCFDEF" transform="translate(328,548)"/>
<path d="M0 0 C1.32 0.33 2.64 0.66 4 1 C2.02 3.31 0.04 5.62 -2 8 C-2.33 7.34 -2.66 6.68 -3 6 C-2.04906703 4.30485863 -1.04892238 2.63631892 0 1 C0 0.67 0 0.34 0 0 Z " fill="#F2DDFB" transform="translate(668,1088)"/>
<path d="M0 0 C0.99 0.33 1.98 0.66 3 1 C1.02 3.31 -0.96 5.62 -3 8 C-3.33 7.01 -3.66 6.02 -4 5 C-3.34 5 -2.68 5 -2 5 C-2 3.68 -2 2.36 -2 1 C-1.34 0.67 -0.68 0.34 0 0 Z " fill="#EED7FC" transform="translate(732,1020)"/>
<path d="M0 0 C0.99 0.33 1.98 0.66 3 1 C-0.465 3.97 -0.465 3.97 -4 7 C-4 4 -4 4 -2 1.8125 C-1.34 1.214375 -0.68 0.61625 0 0 Z " fill="#F8E4FC" transform="translate(795,952)"/>
<path d="M0 0 C0.66 0.99 1.32 1.98 2 3 C0.02 5.31 -1.96 7.62 -4 10 C-4.33 9.01 -4.66 8.02 -5 7 C-4.01 6.67 -3.02 6.34 -2 6 C-0.77479736 2.99152582 -0.77479736 2.99152582 0 0 Z " fill="#EDD7FA" transform="translate(437,941)"/>
<path d="M0 0 C1.32 0.33 2.64 0.66 4 1 C2.02 3.31 0.04 5.62 -2 8 C-2.33 7.01 -2.66 6.02 -3 5 C-2.34 5 -1.68 5 -1 5 C-0.67 3.35 -0.34 1.7 0 0 Z " fill="#ECDCFA" transform="translate(453,923)"/>
<path d="M0 0 C0.66 0.66 1.32 1.32 2 2 C-0.97 4.475 -0.97 4.475 -4 7 C-4.33 6.01 -4.66 5.02 -5 4 C-4.01 3.01 -3.02 2.02 -2 1 C-1.34 1.33 -0.68 1.66 0 2 C0 1.34 0 0.68 0 0 Z " fill="#F0DDFC" transform="translate(846,897)"/>
<path d="M0 0 C0.66 1.32 1.32 2.64 2 4 C1 5 1 5 -2.0625 5.0625 C-3.5165625 5.0315625 -3.5165625 5.0315625 -5 5 C-3.35 3.35 -1.7 1.7 0 0 Z " fill="#6921EE" transform="translate(533,843)"/>
<path d="M0 0 C0.66 0.66 1.32 1.32 2 2 C0.8125 3.5 0.8125 3.5 -1 5 C-3.6875 5.1875 -3.6875 5.1875 -6 5 C-6 4.34 -6 3.68 -6 3 C-4.02 2.01 -2.04 1.02 0 0 Z " fill="#F9F2FA" transform="translate(1266,839)"/>
<path d="M0 0 C1.65 1.65 3.3 3.3 5 5 C3.35 5 1.7 5 0 5 C-0.66 3.68 -1.32 2.36 -2 1 C-1.34 0.67 -0.68 0.34 0 0 Z " fill="#FAFCF1" transform="translate(890,755)"/>
<path d="M0 0 C2.3125 0.1875 2.3125 0.1875 5 1 C6.875 3.4375 6.875 3.4375 8 6 C7.67 6.66 7.34 7.32 7 8 C5.83035398 6.8572081 4.66435444 5.71068285 3.5 4.5625 C2.8503125 3.92441406 2.200625 3.28632812 1.53125 2.62890625 C0 1 0 1 0 0 Z " fill="#6F2DE0" transform="translate(1244,736)"/>
<path d="M0 0 C0.66 0 1.32 0 2 0 C2 0.99 2 1.98 2 3 C3.32 3.33 4.64 3.66 6 4 C5.67 4.99 5.34 5.98 5 7 C4.01 7 3.02 7 2 7 C0 4 0 4 0 0 Z " fill="#F8FBF0" transform="translate(865,729)"/>
<path d="M0 0 C2.93200474 2.85276137 5.64315404 5.65079784 8 9 C5.5625 8.1875 5.5625 8.1875 3 7 C2.67 6.01 2.34 5.02 2 4 C1.34 3.67 0.68 3.34 0 3 C0 2.01 0 1.02 0 0 Z " fill="#F4E0FC" transform="translate(480,704)"/>
<path d="M0 0 C2.64752004 2.57784846 4.94432065 4.91648098 7 8 C4.08482708 6.92598892 2.22189824 6.22189824 0 4 C0 2.68 0 1.36 0 0 Z " fill="#FBFCF0" transform="translate(1200,692)"/>
<path d="M0 0 C3.26008643 3.16952847 6.22237877 6.39937989 9 10 C5.32408105 8.9789114 4.0660202 8.08564783 1.6875 5 C0 2 0 2 0 0 Z " fill="#F3DCFC" transform="translate(1192,680)"/>
<path d="M0 0 C0.66 1.32 1.32 2.64 2 4 C2.66 4 3.32 4 4 4 C3.67 4.99 3.34 5.98 3 7 C2.01 7 1.02 7 0 7 C-0.38133299 5.0085944 -0.71325582 3.00720923 -1 1 C-0.67 0.67 -0.34 0.34 0 0 Z " fill="#7627F4" transform="translate(816,664)"/>
<path d="M0 0 C2.64752004 2.57784846 4.94432065 4.91648098 7 8 C6.01 8 5.02 8 4 8 C0 3.77142857 0 3.77142857 0 0 Z " fill="#E9D4F8" transform="translate(788,640)"/>
<path d="M0 0 C2.4375 0.8125 2.4375 0.8125 5 2 C5.33 2.99 5.66 3.98 6 5 C5.01 5.495 5.01 5.495 4 6 C3.67 5.34 3.34 4.68 3 4 C2.01 4.33 1.02 4.66 0 5 C-0.33 4.01 -0.66 3.02 -1 2 C-0.67 1.34 -0.34 0.68 0 0 Z " fill="#F6EAF6" transform="translate(752,603)"/>
<path d="M0 0 C2 0 2 0 4.5625 2.3125 C7 5 7 5 8 8 C5.04987143 6.63029745 2.4347778 5.17390875 0 3 C0 2.01 0 1.02 0 0 Z " fill="#F9FBEC" transform="translate(744,597)"/>
<path d="M0 0 C1.14926266 0.95421808 2.29430541 1.91352045 3.4375 2.875 C4.07558594 3.40867187 4.71367187 3.94234375 5.37109375 4.4921875 C7 6 7 6 8 8 C6.35 7.67 4.7 7.34 3 7 C3 6.34 3 5.68 3 5 C2.34 5 1.68 5 1 5 C0.67 3.35 0.34 1.7 0 0 Z " fill="#F9E2FD" transform="translate(376,592)"/>
<path d="M0 0 C2.16874252 0.50603992 3.99967627 0.99983813 6 2 C6.72693904 3.97888961 7.39816251 5.97954558 8 8 C6.85073734 7.04578192 5.70569459 6.08647955 4.5625 5.125 C3.92441406 4.59132813 3.28632813 4.05765625 2.62890625 3.5078125 C1 2 1 2 0 0 Z " fill="#793CDF" transform="translate(328,539)"/>
<path d="M0 0 C2.375 0.3125 2.375 0.3125 5 1 C5.66 1.99 6.32 2.98 7 4 C6.67 4.99 6.34 5.98 6 7 C4.02 4.69 2.04 2.38 0 0 Z " fill="#6F2DDC" transform="translate(296,504)"/>
<path d="M0 0 C0.33 0.66 0.66 1.32 1 2 C1.66 2 2.32 2 3 2 C2.67 3.65 2.34 5.3 2 7 C1.01 6.67 0.02 6.34 -1 6 C-0.67 4.02 -0.34 2.04 0 0 Z " fill="#F5EBF5" transform="translate(337,1046)"/>
<path d="M0 0 C0.66 0.99 1.32 1.98 2 3 C-0.3125 5.0625 -0.3125 5.0625 -3 7 C-3.99 6.67 -4.98 6.34 -6 6 C-5.01 5.67 -4.02 5.34 -3 5 C-1.8499169 3.03327085 -1.8499169 3.03327085 -1 1 C-0.67 0.67 -0.34 0.34 0 0 Z " fill="#7D41E1" transform="translate(379,1008)"/>
<path d="M0 0 C1.2065625 0.0309375 1.2065625 0.0309375 2.4375 0.0625 C2.1075 0.7225 1.7775 1.3825 1.4375 2.0625 C0.7775 2.0625 0.1175 2.0625 -0.5625 2.0625 C-1.2225 3.3825 -1.8825 4.7025 -2.5625 6.0625 C-2.8925 6.0625 -3.2225 6.0625 -3.5625 6.0625 C-3.605221 4.39638095 -3.60313832 2.72867115 -3.5625 1.0625 C-2.5625 0.0625 -2.5625 0.0625 0 0 Z " fill="#FAFBF3" transform="translate(1163.5625,943.9375)"/>
<path d="M0 0 C0.99 0 1.98 0 3 0 C1.60667426 3.36720387 0.0210714 4.9859524 -3 7 C-2.38722388 4.03824877 -1.74627478 2.61941217 0 0 Z " fill="#F0D8FC" transform="translate(442,936)"/>
<path d="M0 0 C0.66 0 1.32 0 2 0 C2 0.99 2 1.98 2 3 C2.66 3.33 3.32 3.66 4 4 C3.01 4.99 2.02 5.98 1 7 C0.34 6.34 -0.32 5.68 -1 5 C-0.625 2.375 -0.625 2.375 0 0 Z " fill="#F7F7F6" transform="translate(450,921)"/>
<path d="M0 0 C0.66 0.33 1.32 0.66 2 1 C-0.31 3.64 -2.62 6.28 -5 9 C-5.33 7.68 -5.66 6.36 -6 5 C-5.34 5 -4.68 5 -4 5 C-3.67 4.01 -3.34 3.02 -3 2 C-2.01 1.34 -1.02 0.68 0 0 Z " fill="#F4E1FC" transform="translate(879,862)"/>
<path d="M0 0 C2 2 2 2 2 5 C0.35 5.33 -1.3 5.66 -3 6 C-3 3 -3 3 -1.5 1.3125 C-0.7575 0.6628125 -0.7575 0.6628125 0 0 Z " fill="#7531EE" transform="translate(1282,825)"/>
<path d="M0 0 C2.4375 0.8125 2.4375 0.8125 5 2 C5.33 2.99 5.66 3.98 6 5 C6.66 5 7.32 5 8 5 C7.67 5.99 7.34 6.98 7 8 C5.83035398 6.8572081 4.66435444 5.71068285 3.5 4.5625 C2.8503125 3.92441406 2.200625 3.28632812 1.53125 2.62890625 C0 1 0 1 0 0 Z " fill="#824ADC" transform="translate(1272,767)"/>
<path d="M0 0 C2.37948772 0.17625835 3.70225849 0.69719773 5.37890625 2.40234375 C6.62115486 3.90649092 7.81376056 5.45129851 9 7 C8.67 7.66 8.34 8.32 8 9 C6.66368764 7.6905332 5.33102075 6.37734515 4 5.0625 C3.2575 4.33160156 2.515 3.60070312 1.75 2.84765625 C0 1 0 1 0 0 Z " fill="#6B2AD4" transform="translate(486,710)"/>
<path d="M0 0 C2.93200474 2.85276137 5.64315404 5.65079784 8 9 C4.68470727 8.01437243 3.25050621 7.34552581 1.1875 4.5 C0 2 0 2 0 0 Z " fill="#F4DCFC" transform="translate(1142,626)"/>
<path d="M0 0 C1.65 0.33 3.3 0.66 5 1 C5 1.99 5 2.98 5 4 C3.35 4 1.7 4 0 4 C0 2.68 0 1.36 0 0 Z " fill="#F9FCEF" transform="translate(697,548)"/>
<path d="M0 0 C1.98 1.65 3.96 3.3 6 5 C5.34 5.66 4.68 6.32 4 7 C2.35 5.35 0.7 3.7 -1 2 C-0.67 1.34 -0.34 0.68 0 0 Z " fill="#F5E1FC" transform="translate(1066,544)"/>
<path d="M0 0 C1.65 1.65 3.3 3.3 5 5 C3.68 5.33 2.36 5.66 1 6 C-0.0625 4.125 -0.0625 4.125 -1 2 C-0.67 1.34 -0.34 0.68 0 0 Z " fill="#EFDFFA" transform="translate(324,535)"/>
<path d="M0 0 C1.32 1.32 2.64 2.64 4 4 C2.68 5.32 1.36 6.64 0 8 C0 5.36 0 2.72 0 0 Z " fill="#F1DAFC" transform="translate(292,500)"/>
<path d="M0 0 C1.32 0 2.64 0 4 0 C4.33 0.99 4.66 1.98 5 3 C4.34 3 3.68 3 3 3 C2.67 3.66 2.34 4.32 2 5 C1.34 5 0.68 5 0 5 C0 3.35 0 1.7 0 0 Z " fill="#F7F9EC" transform="translate(1096,1016)"/>
<path d="M0 0 C0.66 0 1.32 0 2 0 C0.60667426 3.36720387 -0.9789286 4.9859524 -4 7 C-4.33 6.01 -4.66 5.02 -5 4 C-3.35 3.34 -1.7 2.68 0 2 C0 1.34 0 0.68 0 0 Z " fill="#F3DDFC" transform="translate(750,1001)"/>
<path d="M0 0 C0.99 0.33 1.98 0.66 3 1 C-0.465 3.97 -0.465 3.97 -4 7 C-3.04065919 3.16263678 -2.76390737 2.40339772 0 0 Z " fill="#F8E6FD" transform="translate(1140,976)"/>
<path d="M0 0 C0.99 0.33 1.98 0.66 3 1 C1.35 2.98 -0.3 4.96 -2 7 C-2.33 6.01 -2.66 5.02 -3 4 C-1.5625 1.8125 -1.5625 1.8125 0 0 Z " fill="#EDD7FB" transform="translate(1190,921)"/>
<path d="M0 0 C1.65 0 3.3 0 5 0 C3.02 2.97 3.02 2.97 1 6 C-0.0625 4.125 -0.0625 4.125 -1 2 C-0.67 1.34 -0.34 0.68 0 0 Z " fill="#F1DEFA" transform="translate(835,906)"/>
<path d="M0 0 C2.46800047 1.15173355 4.04783565 2.04783565 6 4 C4.68 4.99 3.36 5.98 2 7 C1.34 4.69 0.68 2.38 0 0 Z " fill="#F9F1F8" transform="translate(848,888)"/>
<path d="M0 0 C1.32 0 2.64 0 4 0 C3.625 2.4375 3.625 2.4375 3 5 C2.01 5.495 2.01 5.495 1 6 C0.67 4.02 0.34 2.04 0 0 Z " fill="#F9EFF8" transform="translate(1232,872)"/>
<path d="M0 0 C0.99 0.33 1.98 0.66 3 1 C0.69 3.31 -1.62 5.62 -4 8 C-4.66 7.67 -5.32 7.34 -6 7 C-4.02 4.69 -2.04 2.38 0 0 Z " fill="#7331E1" transform="translate(1289,817)"/>
<path d="M0 0 C1.32 0 2.64 0 4 0 C3.67 1.65 3.34 3.3 3 5 C2.01 4.67 1.02 4.34 0 4 C0 2.68 0 1.36 0 0 Z " fill="#721EEB" transform="translate(1305,808)"/>
<path d="M0 0 C1.65 1.32 3.3 2.64 5 4 C4.67 4.99 4.34 5.98 4 7 C3.34 7 2.68 7 2 7 C2 6.01 2 5.02 2 4 C1.34 4 0.68 4 0 4 C0 2.68 0 1.36 0 0 Z " fill="#EAD5FA" transform="translate(928,792)"/>
<path d="M0 0 C2.31 1.98 4.62 3.96 7 6 C6.01 6.33 5.02 6.66 4 7 C2 5.1875 2 5.1875 0 3 C0 2.01 0 1.02 0 0 Z " fill="#F0DDFE" transform="translate(531,760)"/>
<path d="M0 0 C1.65 0 3.3 0 5 0 C5.12375 0.804375 5.2475 1.60875 5.375 2.4375 C5.684375 3.7059375 5.684375 3.7059375 6 5 C6.66 5.33 7.32 5.66 8 6 C5 6 5 6 3.61328125 4.6875 C2.40885417 3.125 1.20442708 1.5625 0 0 Z " fill="#793AE6" transform="translate(728,575)"/>
<path d="M0 0 C1.32 0.33 2.64 0.66 4 1 C4 1.66 4 2.32 4 3 C4.99 3.33 5.98 3.66 7 4 C7.6875 6.0625 7.6875 6.0625 8 8 C6.85073734 7.04578192 5.70569459 6.08647955 4.5625 5.125 C3.92441406 4.59132813 3.28632812 4.05765625 2.62890625 3.5078125 C1 2 1 2 0 0 Z " fill="#743DD4" transform="translate(1076,554)"/>
<path d="M0 0 C0.99 0.33 1.98 0.66 3 1 C1.35 2.65 -0.3 4.3 -2 6 C-2.33 5.34 -2.66 4.68 -3 4 C-2.01 2.68 -1.02 1.36 0 0 Z " fill="#722DED" transform="translate(664,1097)"/>
<path d="M0 0 C0.66 0 1.32 0 2 0 C2 0.66 2 1.32 2 2 C2.66 2.33 3.32 2.66 4 3 C2.35 4.32 0.7 5.64 -1 7 C-0.7525 6.1028125 -0.7525 6.1028125 -0.5 5.1875 C0.1114124 2.88655664 0.1114124 2.88655664 0 0 Z " fill="#F7ECF7" transform="translate(307,1080)"/>
<path d="M0 0 C1 3 1 3 0.0625 5.1875 C-0.4634375 6.0846875 -0.4634375 6.0846875 -1 7 C-2.32 6.67 -3.64 6.34 -5 6 C-3.35 4.02 -1.7 2.04 0 0 Z " fill="#7332E3" transform="translate(1112,1009)"/>
<path d="M0 0 C0 3 0 3 -1 6 C-2.65 6.33 -4.3 6.66 -6 7 C-4.02 4.69 -2.04 2.38 0 0 Z " fill="#7A42DB" transform="translate(760,993)"/>
<path d="M0 0 C0.99 0.33 1.98 0.66 3 1 C0.03 3.475 0.03 3.475 -3 6 C-3 3 -3 3 -1.5 1.3125 C-0.7575 0.6628125 -0.7575 0.6628125 0 0 Z " fill="#E9D1FB" transform="translate(396,987)"/>
<path d="M0 0 C0.33 0.99 0.66 1.98 1 3 C0.67 3.66 0.34 4.32 0 5 C-2.5625 5.625 -2.5625 5.625 -5 6 C-2.25 1.125 -2.25 1.125 0 0 Z " fill="#7E38E4" transform="translate(1203,911)"/>
<path d="M0 0 C0.66 0.99 1.32 1.98 2 3 C1.01 3.99 0.02 4.98 -1 6 C-1.99 5.67 -2.98 5.34 -4 5 C-2.68 3.35 -1.36 1.7 0 0 Z " fill="#7A36EC" transform="translate(1208,905)"/>
<path d="M0 0 C2.475 0.495 2.475 0.495 5 1 C5 1.99 5 2.98 5 4 C3.68 4 2.36 4 1 4 C0.67 2.68 0.34 1.36 0 0 Z " fill="#FAFDEB" transform="translate(899,832)"/>
<path d="M0 0 C1.98 0.495 1.98 0.495 4 1 C3.67 2.65 3.34 4.3 3 6 C1.68 5.67 0.36 5.34 -1 5 C-0.34 4.01 0.32 3.02 1 2 C0.67 1.34 0.34 0.68 0 0 Z " fill="#762FE4" transform="translate(935,799)"/>
<path d="M0 0 C0.99 0.33 1.98 0.66 3 1 C3 1.66 3 2.32 3 3 C3.99 3.33 4.98 3.66 6 4 C6.6875 6.0625 6.6875 6.0625 7 8 C1.125 3.375 1.125 3.375 0 0 Z " fill="#7235D5" transform="translate(909,770)"/>
<path d="M0 0 C2 1 4 2 6 3 C6 3.99 6 4.98 6 6 C3.37812506 4.95125002 2.20628639 4.35068687 0.75 1.875 C0.5025 1.25625 0.255 0.6375 0 0 Z " fill="#FAFAF2" transform="translate(896,762)"/>
<path d="M0 0 C1.32 1.32 2.64 2.64 4 4 C0.98968256 4.93423645 0.13349732 5.04449911 -3 4 C-2.01 2.68 -1.02 1.36 0 0 Z " fill="#F0E4F4" transform="translate(1187,675)"/>
<path d="M0 0 C1.98 0.66 3.96 1.32 6 2 C6 3.32 6 4.64 6 6 C3.97945196 4.35830472 1.97956942 2.69088222 0 1 C0 0.67 0 0.34 0 0 Z " fill="#7C3FDC" transform="translate(434,654)"/>
<path d="M0 0 C1.98 0.66 3.96 1.32 6 2 C6.33 3.65 6.66 5.3 7 7 C5.83040013 6.02433888 4.66438823 5.044375 3.5 4.0625 C2.8503125 3.51722656 2.200625 2.97195313 1.53125 2.41015625 C1.0259375 1.94480469 0.520625 1.47945312 0 1 C0 0.67 0 0.34 0 0 Z " fill="#6F31DF" transform="translate(367,581)"/>
</svg>
